<svg width="897" height="753" viewBox="0 0 897 753" fill="none" xmlns="http://www.w3.org/2000/svg">
<g clip-path="url(#clip0)">
<rect x="1.01709" y="3.28271" width="401.631" height="251.985" rx="17.3783" fill="#D9F4FF"/>
<path d="M1.01709 20.661C1.01709 11.0632 8.79761 3.28271 18.3954 3.28271H70.5302V255.268H18.3954C8.79761 255.268 1.01709 247.487 1.01709 237.889V20.661Z" fill="#024663"/>
<rect x="17.4297" y="41.9011" width="35.722" height="7.72368" rx="3.86184" fill="#00B4FF"/>
<rect x="17.4297" y="73.7609" width="35.722" height="7.72368" rx="3.86184" fill="#00B4FF"/>
<rect x="17.4297" y="105.621" width="35.722" height="7.72368" rx="3.86184" fill="white"/>
<rect x="17.4297" y="137.481" width="35.722" height="7.72368" rx="3.86184" fill="#00B4FF"/>
<rect x="177.779" y="42.3095" width="117.377" height="73.4581" rx="6.99601" transform="rotate(90 177.779 42.3095)" fill="#4333FF"/>
<line x1="4.08101" y1="-4.08101" x2="47.7718" y2="-4.08101" transform="matrix(1 0 0 -1 115.202 113.529)" stroke="#878787" stroke-width="8.16201" stroke-linecap="round"/>
<line x1="4.08101" y1="-4.08101" x2="47.7718" y2="-4.08101" transform="matrix(1 0 0 -1 115.202 126.493)" stroke="#878787" stroke-width="8.16201" stroke-linecap="round"/>
<line x1="119.283" y1="144.017" x2="150.01" y2="144.017" stroke="#5AAEFD" stroke-width="8.16201" stroke-linecap="round"/>
<rect x="111.745" y="49.5775" width="58.7665" height="57.038" rx="5.18528" fill="#5AAEFD"/>
<circle cx="134.646" cy="81.1216" r="15.9879" fill="white"/>
<path d="M134.9 65.2602C133.61 68.6707 132.56 70.5369 129.951 73.7617C128.413 73.8772 127.921 74.1424 126.906 75.5381C125.31 73.4348 124.239 72.5375 121.831 71.7315C125.354 67.1594 130.205 65.1333 134.9 65.2602Z" fill="white"/>
<path d="M132.743 76.2996C132.273 74.7495 131.794 74.1402 129.952 73.6349C132.513 70.8981 133.486 69.1518 134.9 65.2603C142.26 65.2603 149.239 70.209 150.508 79.5987C144.242 76.4673 140.623 75.0037 132.743 76.2996Z" fill="#76B5FF"/>
<path d="M130.84 79.8523C132.373 78.848 132.772 78.0903 132.743 76.4263C139.689 75.3239 143.675 76.0834 150.508 79.8523C151.269 87.7193 145.94 94.5713 138.453 96.6015C137.757 88.4818 136.217 84.7271 130.84 79.8523Z" fill="white"/>
<path d="M130.713 79.8524C129.061 80.2226 128.267 79.9966 127.16 78.5835C126.297 84.2089 124.396 85.8659 120.562 88.3539C123.607 94.4445 130.586 98.2512 138.453 96.6016C137.731 88.1075 136.058 84.422 130.713 79.8524Z" fill="#FF7676"/>
<path d="M118.785 79.472C121.71 79.2955 123.306 78.8574 126.018 77.0611C125.818 78.3198 125.89 79.0189 126.906 80.2333C125.895 84.0784 124.409 85.8559 120.435 88.4811C119.097 85.4165 118.627 83.5152 118.785 79.472Z" fill="white"/>
<path d="M126.018 77.0612L126.272 74.6503C124.688 73.1609 123.7 72.4766 121.704 71.605C119.461 75.0958 119.017 76.7444 118.786 79.4721C121.576 79.363 123.354 78.8376 126.018 77.0612Z" fill="#FDFF89"/>
<circle cx="129.698" cy="76.9342" r="4.18732" fill="#A5FFE9"/>
<path d="M156.638 47.6651C157.839 45.0328 161.578 45.0328 162.779 47.6651L163.503 49.2523C164.179 50.7328 165.815 51.5205 167.393 51.1256L169.086 50.7022C171.893 50.0001 174.224 52.9237 172.915 55.504L172.126 57.0598C171.39 58.5111 171.794 60.2811 173.087 61.2691L174.473 62.3284C176.772 64.0851 175.94 67.7309 173.106 68.3161L171.398 68.669C169.804 68.9982 168.672 70.4176 168.706 72.0446L168.742 73.7888C168.802 76.6816 165.433 78.3041 163.208 76.4536L161.867 75.3379C160.616 74.2971 158.801 74.2971 157.55 75.3379L156.208 76.4536C153.984 78.3041 150.615 76.6816 150.675 73.7888L150.711 72.0446C150.745 70.4176 149.613 68.9982 148.019 68.669L146.311 68.3161C143.477 67.7309 142.645 64.0851 144.944 62.3284L146.33 61.2691C147.623 60.2811 148.027 58.5111 147.291 57.0598L146.502 55.504C145.192 52.9237 147.524 50.0001 150.331 50.7022L152.023 51.1256C153.602 51.5205 155.238 50.7328 155.913 49.2523L156.638 47.6651Z" fill="#FCFF57"/>
<path d="M161.188 64.9093C161.188 64.4826 161.083 64.1476 160.872 63.9045C160.662 63.6615 160.292 63.4319 159.762 63.2158C159.233 62.9997 158.744 62.7809 158.296 62.5594C157.847 62.3379 157.461 62.0813 157.137 61.7896C156.813 61.4979 156.564 61.1603 156.391 60.7767C156.219 60.3932 156.132 59.9286 156.132 59.383C156.132 58.47 156.44 57.7192 157.056 57.1303C157.502 56.6999 158.056 56.3999 158.717 56.2302C159.164 56.1155 159.519 55.7404 159.519 55.2786V55.0276C159.519 54.6718 159.808 54.3834 160.163 54.3834C160.519 54.3834 160.808 54.6718 160.808 55.0276V55.3184C160.808 55.782 161.153 56.1627 161.592 56.3111C162.216 56.5219 162.73 56.8679 163.133 57.3491C163.476 57.7505 163.715 58.218 163.851 58.7516C164.006 59.3642 163.472 59.8854 162.84 59.8854H162.39C161.758 59.8854 161.314 59.3365 161.031 58.7714C160.998 58.7061 160.961 58.6452 160.921 58.5889C160.705 58.2864 160.397 58.1351 159.997 58.1351C159.641 58.1351 159.363 58.2486 159.163 58.4754C158.968 58.6969 158.871 59.0049 158.871 59.3992C158.871 59.799 158.984 60.1177 159.211 60.3554C159.438 60.5877 159.803 60.8118 160.305 61.0279C160.808 61.2386 161.28 61.4601 161.723 61.6924C162.172 61.9193 162.558 62.1786 162.882 62.4703C163.206 62.762 163.46 63.1023 163.644 63.4913C163.827 63.8802 163.919 64.3475 163.919 64.8931C163.919 65.8169 163.625 66.5705 163.036 67.1539C162.608 67.5815 162.066 67.8786 161.409 68.045C160.983 68.153 160.646 68.5105 160.646 68.9502V69.1594C160.646 69.5152 160.357 69.8036 160.001 69.8036C159.646 69.8036 159.357 69.5152 159.357 69.1594V68.9422C159.357 68.5014 159.022 68.1405 158.593 68.0381C157.78 67.8442 157.13 67.4846 156.643 66.9594C156.244 66.5231 155.972 65.9993 155.827 65.3882C155.681 64.7732 156.215 64.253 156.847 64.253H157.289C157.921 64.253 158.371 64.7993 158.649 65.3673C158.702 65.4765 158.765 65.5751 158.839 65.6629C159.114 65.9817 159.503 66.141 160.005 66.141C160.373 66.141 160.662 66.033 160.872 65.8169C161.083 65.5954 161.188 65.2929 161.188 64.9093Z" fill="#878787"/>
<path d="M141.56 93.6521H111.745V101.43C111.745 104.294 114.066 106.615 116.93 106.615H165.326C168.19 106.615 170.511 104.294 170.511 101.43V97.9732L141.56 93.6521Z" fill="#FCFF57"/>
<path d="M165.095 142.255C166.307 142.908 166.307 144.645 165.095 145.298L160.745 147.642C159.593 148.263 158.197 147.429 158.197 146.121L158.197 141.432C158.197 140.124 159.593 139.29 160.745 139.911L165.095 142.255Z" fill="#5AAEFD"/>
<rect x="266.602" y="42.3095" width="117.377" height="73.4581" rx="6.99601" transform="rotate(90 266.602 42.3095)" fill="#33FFDA"/>
<line x1="4.08101" y1="-4.08101" x2="47.7718" y2="-4.08101" transform="matrix(1 0 0 -1 204.024 113.529)" stroke="#878787" stroke-width="8.16201" stroke-linecap="round"/>
<line x1="4.08101" y1="-4.08101" x2="47.7718" y2="-4.08101" transform="matrix(1 0 0 -1 204.024 126.493)" stroke="#878787" stroke-width="8.16201" stroke-linecap="round"/>
<line x1="208.105" y1="144.017" x2="238.833" y2="144.017" stroke="#5AAEFD" stroke-width="8.16201" stroke-linecap="round"/>
<rect x="200.567" y="49.5775" width="58.7665" height="57.038" rx="5.18528" fill="#5AAEFD"/>
<circle cx="223.469" cy="81.1216" r="15.9879" fill="white"/>
<path d="M223.722 65.2606C222.432 68.6712 221.382 70.5374 218.774 73.7621C217.235 73.8777 216.743 74.1428 215.728 75.5386C214.132 73.4353 213.061 72.5379 210.653 71.7319C214.177 67.1599 219.027 65.1337 223.722 65.2606Z" fill="white"/>
<path d="M221.565 76.2996C221.095 74.7495 220.617 74.1402 218.774 73.6349C221.336 70.8981 222.308 69.1518 223.723 65.2603C231.082 65.2603 238.061 70.209 239.33 79.5987C233.065 76.4673 229.445 75.0037 221.565 76.2996Z" fill="#76B5FF"/>
<path d="M219.662 79.8523C221.196 78.848 221.594 78.0903 221.565 76.4263C228.511 75.3239 232.497 76.0834 239.33 79.8523C240.091 87.7193 234.762 94.5713 227.275 96.6015C226.58 88.4818 225.039 84.7271 219.662 79.8523Z" fill="white"/>
<path d="M219.534 79.8524C217.883 80.2226 217.089 79.9966 215.981 78.5835C215.119 84.2089 213.217 85.8659 209.383 88.3539C212.429 94.4445 219.407 98.2512 227.275 96.6016C226.553 88.1075 224.88 84.422 219.534 79.8524Z" fill="#FF7676"/>
<path d="M207.608 79.472C210.533 79.2955 212.128 78.8574 214.84 77.0611C214.64 78.3198 214.712 79.0189 215.728 80.2333C214.717 84.0784 213.231 85.8559 209.257 88.4811C207.919 85.4165 207.449 83.5152 207.608 79.472Z" fill="white"/>
<path d="M214.84 77.0612L215.094 74.6503C213.51 73.1609 212.521 72.4766 210.526 71.605C208.283 75.0958 207.839 76.7444 207.607 79.4721C210.398 79.363 212.175 78.8376 214.84 77.0612Z" fill="#FDFF89"/>
<circle cx="218.52" cy="76.9342" r="4.18732" fill="#A5FFE9"/>
<path d="M245.46 47.6651C246.661 45.0328 250.401 45.0328 251.602 47.6651L252.326 49.2523C253.002 50.7328 254.637 51.5205 256.216 51.1256L257.909 50.7022C260.716 50.0001 263.047 52.9237 261.738 55.504L260.949 57.0598C260.212 58.5111 260.616 60.2811 261.909 61.2691L263.296 62.3284C265.595 64.0851 264.762 67.7309 261.929 68.3161L260.22 68.669C258.627 68.9982 257.495 70.4176 257.528 72.0446L257.565 73.7888C257.625 76.6816 254.255 78.3041 252.031 76.4536L250.69 75.3379C249.439 74.2971 247.623 74.2971 246.372 75.3379L245.031 76.4536C242.807 78.3041 239.438 76.6816 239.498 73.7888L239.534 72.0446C239.568 70.4176 238.436 68.9982 236.842 68.669L235.133 68.3161C232.3 67.7309 231.468 64.0851 233.767 62.3284L235.153 61.2691C236.446 60.2811 236.85 58.5111 236.114 57.0598L235.324 55.504C234.015 52.9237 236.347 50.0001 239.154 50.7022L240.846 51.1256C242.425 51.5205 244.06 50.7328 244.736 49.2523L245.46 47.6651Z" fill="#FCFF57"/>
<path d="M250.011 64.9093C250.011 64.4826 249.906 64.1476 249.695 63.9045C249.485 63.6615 249.114 63.4319 248.585 63.2158C248.056 62.9997 247.567 62.7809 247.118 62.5594C246.67 62.3379 246.284 62.0813 245.96 61.7896C245.636 61.4979 245.387 61.1603 245.214 60.7767C245.041 60.3932 244.955 59.9286 244.955 59.383C244.955 58.47 245.263 57.7192 245.879 57.1303C246.325 56.6999 246.878 56.3999 247.54 56.2302C247.987 56.1155 248.342 55.7404 248.342 55.2786V55.0276C248.342 54.6718 248.63 54.3834 248.986 54.3834C249.342 54.3834 249.63 54.6718 249.63 55.0276V55.3184C249.63 55.782 249.976 56.1627 250.415 56.3111C251.039 56.5219 251.552 56.8679 251.956 57.3491C252.299 57.7505 252.538 58.218 252.673 58.7516C252.829 59.3642 252.294 59.8854 251.662 59.8854H251.212C250.58 59.8854 250.137 59.3365 249.853 58.7714C249.821 58.7061 249.784 58.6452 249.744 58.5889C249.528 58.2864 249.22 58.1351 248.82 58.1351C248.464 58.1351 248.185 58.2486 247.985 58.4754C247.791 58.6969 247.694 59.0049 247.694 59.3992C247.694 59.799 247.807 60.1177 248.034 60.3554C248.261 60.5877 248.626 60.8118 249.128 61.0279C249.63 61.2386 250.103 61.4601 250.546 61.6924C250.994 61.9193 251.381 62.1786 251.705 62.4703C252.029 62.762 252.283 63.1023 252.466 63.4913C252.65 63.8802 252.742 64.3475 252.742 64.8931C252.742 65.8169 252.448 66.5705 251.859 67.1539C251.431 67.5815 250.889 67.8786 250.232 68.045C249.806 68.153 249.468 68.5105 249.468 68.9502V69.1594C249.468 69.5152 249.18 69.8036 248.824 69.8036C248.468 69.8036 248.18 69.5152 248.18 69.1594V68.9422C248.18 68.5014 247.844 68.1405 247.416 68.0381C246.603 67.8442 245.953 67.4846 245.465 66.9594C245.067 66.5231 244.795 65.9993 244.65 65.3882C244.504 64.7732 245.038 64.253 245.67 64.253H246.112C246.744 64.253 247.194 64.7993 247.471 65.3673C247.525 65.4765 247.588 65.5751 247.661 65.6629C247.937 65.9817 248.326 66.141 248.828 66.141C249.195 66.141 249.485 66.033 249.695 65.8169C249.906 65.5954 250.011 65.2929 250.011 64.9093Z" fill="#878787"/>
<path d="M230.382 93.6521H200.567V101.43C200.567 104.294 202.888 106.615 205.752 106.615H254.148C257.012 106.615 259.333 104.294 259.333 101.43V97.9732L230.382 93.6521Z" fill="#FCFF57"/>
<path d="M253.917 142.255C255.128 142.908 255.128 144.645 253.917 145.298L249.567 147.642C248.415 148.263 247.018 147.429 247.018 146.121L247.018 141.432C247.018 140.124 248.415 139.29 249.567 139.911L253.917 142.255Z" fill="#5AAEFD"/>
<rect x="355.424" y="42.3095" width="117.377" height="73.4581" rx="6.99601" transform="rotate(90 355.424 42.3095)" fill="#4333FF"/>
<line x1="4.08101" y1="-4.08101" x2="47.7718" y2="-4.08101" transform="matrix(1 0 0 -1 292.846 113.529)" stroke="#878787" stroke-width="8.16201" stroke-linecap="round"/>
<line x1="4.08101" y1="-4.08101" x2="47.7718" y2="-4.08101" transform="matrix(1 0 0 -1 292.846 126.493)" stroke="#878787" stroke-width="8.16201" stroke-linecap="round"/>
<line x1="296.927" y1="144.017" x2="327.655" y2="144.017" stroke="#FCFF57" stroke-width="8.16201" stroke-linecap="round"/>
<rect x="289.39" y="49.5775" width="58.7665" height="57.038" rx="5.18528" fill="#002F5B"/>
<circle cx="312.291" cy="81.1216" r="15.9879" fill="white"/>
<path d="M312.545 65.2602C311.254 68.6707 310.205 70.5369 307.596 73.7617C306.058 73.8772 305.566 74.1424 304.551 75.5381C302.955 73.4348 301.883 72.5375 299.475 71.7315C302.999 67.1594 307.85 65.1333 312.545 65.2602Z" fill="white"/>
<path d="M310.388 76.2996C309.917 74.7495 309.439 74.1402 307.596 73.6349C310.158 70.8981 311.131 69.1518 312.545 65.2603C319.904 65.2603 326.883 70.209 328.152 79.5987C321.887 76.4673 318.268 75.0037 310.388 76.2996Z" fill="#76B5FF"/>
<path d="M308.484 79.8523C310.018 78.848 310.416 78.0903 310.388 76.4263C317.333 75.3239 321.319 76.0834 328.152 79.8523C328.913 87.7193 323.584 94.5713 316.098 96.6015C315.402 88.4818 313.861 84.7271 308.484 79.8523Z" fill="white"/>
<path d="M308.357 79.8524C306.706 80.2226 305.912 79.9966 304.804 78.5835C303.941 84.2089 302.04 85.8659 298.206 88.3539C301.251 94.4445 308.23 98.2512 316.097 96.6016C315.375 88.1075 313.703 84.422 308.357 79.8524Z" fill="#FF7676"/>
<path d="M296.43 79.472C299.355 79.2955 300.95 78.8574 303.662 77.0611C303.463 78.3198 303.534 79.0189 304.551 80.2333C303.539 84.0784 302.053 85.8559 298.079 88.4811C296.742 85.4165 296.272 83.5152 296.43 79.472Z" fill="white"/>
<path d="M303.662 77.0612L303.916 74.6503C302.332 73.1609 301.344 72.4766 299.348 71.605C297.105 75.0958 296.661 76.7444 296.43 79.4721C299.22 79.363 300.998 78.8376 303.662 77.0612Z" fill="#FDFF89"/>
<circle cx="307.343" cy="76.9342" r="4.18732" fill="#A5FFE9"/>
<path d="M334.283 47.6651C335.484 45.0328 339.223 45.0328 340.424 47.6651L341.148 49.2523C341.824 50.7328 343.46 51.5205 345.038 51.1256L346.731 50.7022C349.538 50.0001 351.869 52.9237 350.56 55.504L349.771 57.0598C349.035 58.5111 349.439 60.2811 350.732 61.2691L352.118 62.3284C354.417 64.0851 353.585 67.7309 350.751 68.3161L349.043 68.669C347.449 68.9982 346.317 70.4176 346.351 72.0446L346.387 73.7888C346.447 76.6816 343.078 78.3041 340.853 76.4536L339.512 75.3379C338.261 74.2971 336.446 74.2971 335.195 75.3379L333.853 76.4536C331.629 78.3041 328.26 76.6816 328.32 73.7888L328.356 72.0446C328.39 70.4176 327.258 68.9982 325.664 68.669L323.956 68.3161C321.122 67.7309 320.29 64.0851 322.589 62.3284L323.975 61.2691C325.268 60.2811 325.672 58.5111 324.936 57.0598L324.147 55.504C322.837 52.9237 325.169 50.0001 327.976 50.7022L329.668 51.1256C331.247 51.5205 332.883 50.7328 333.558 49.2523L334.283 47.6651Z" fill="#FCFF57"/>
<path d="M319.205 93.6521H289.39V101.43C289.39 104.294 291.711 106.615 294.575 106.615H342.971C345.835 106.615 348.156 104.294 348.156 101.43V97.9732L319.205 93.6521Z" fill="#FCFF57"/>
<rect width="10.9419" height="35.0784" rx="1.93092" transform="matrix(-1 0 0 1 157.421 174.169)" fill="#00B4FF"/>
<rect width="10.9419" height="25.4238" rx="1.93092" transform="matrix(-1 0 0 1 143.583 183.823)" fill="#0090CD"/>
<rect width="10.9419" height="16.091" rx="1.93092" transform="matrix(-1 0 0 1 129.745 193.156)" fill="#016894"/>
<rect width="10.6201" height="15.4474" rx="1.93092" transform="matrix(-1 0 0 1 249.14 193.478)" fill="#00B4FF"/>
<rect width="11.5855" height="30.8947" rx="1.93092" transform="matrix(-1 0 0 1 235.624 178.031)" fill="#0090CD"/>
<rect width="10.6201" height="18.3437" rx="1.93092" transform="matrix(-1 0 0 1 221.142 190.582)" fill="#016894"/>
<rect width="10.6201" height="11.5855" rx="1.93092" transform="matrix(-1 0 0 1 338.928 197.34)" fill="#00B4FF"/>
<rect width="11.5855" height="21.2401" rx="1.93092" transform="matrix(-1 0 0 1 325.412 187.685)" fill="#0090CD"/>
<rect width="10.6201" height="25.102" rx="1.93092" transform="matrix(-1 0 0 1 310.93 183.823)" fill="#016894"/>
<rect x="494.369" y="0.0935059" width="402.927" height="252.798" rx="17.4344" fill="#D9F4FF"/>
<path d="M494.369 17.5279C494.369 7.89915 502.175 0.0935059 511.803 0.0935059H564.107V252.892H511.803C502.175 252.892 494.369 245.086 494.369 235.457V17.5279Z" fill="#024663"/>
<rect x="604.787" y="32.0574" width="31.9485" height="102.423" rx="5.63797" fill="#00B4FF"/>
<rect x="645.192" y="60.2031" width="31.9485" height="74.2334" rx="5.63797" fill="#0090CD"/>
<rect x="685.598" y="87.7422" width="31.9485" height="46.9831" rx="5.63797" fill="#016894"/>
<path d="M805.405 41.4533C796.206 41.4532 787.213 44.1811 779.564 49.292C771.915 54.4028 765.953 61.6672 762.432 70.1664C758.912 78.6656 757.991 88.0178 759.785 97.0406C761.58 106.063 766.01 114.351 772.515 120.856C779.02 127.361 787.308 131.791 796.33 133.586C805.353 135.381 814.705 134.46 823.205 130.939C831.704 127.419 838.968 121.457 844.079 113.808C849.19 106.159 851.918 97.1661 851.918 87.9666H805.405L805.405 41.4533Z" fill="#00C1DB"/>
<rect x="604.787" y="162.67" width="112.759" height="58.2591" rx="7.5173" fill="#00C1DB"/>
<rect x="749.495" y="162.67" width="112.759" height="58.2591" rx="7.5173" fill="white"/>
<rect x="510.834" y="38.8365" width="35.8373" height="7.7486" rx="3.8743" fill="#00B4FF"/>
<rect x="510.834" y="70.7997" width="35.8373" height="7.7486" rx="3.8743" fill="#00B4FF"/>
<rect x="510.834" y="102.763" width="35.8373" height="7.7486" rx="3.8743" fill="white"/>
<rect x="510.834" y="134.725" width="35.8373" height="7.7486" rx="3.8743" fill="#00B4FF"/>
<rect x="2.64014" y="335.413" width="401.542" height="251.929" rx="17.3744" fill="white"/>
<path d="M2.64014 352.788C2.64014 343.192 10.4189 335.413 20.0145 335.413H386.808C396.403 335.413 404.182 343.192 404.182 352.788V370.162H2.64014V352.788Z" fill="#C4C4C4"/>
<circle cx="30.1496" cy="353.27" r="6.27409" fill="#FF6464"/>
<circle cx="47.5241" cy="353.27" r="6.27409" fill="#FFB951"/>
<circle cx="64.8986" cy="353.27" r="6.27409" fill="#5AFF7F"/>
<rect x="90.4775" y="346.996" width="225.867" height="13.5134" rx="6.75671" fill="#E9E9E9"/>
<circle cx="322.136" cy="349.892" r="0.965245" fill="#747474"/>
<circle cx="322.136" cy="353.753" r="0.965245" fill="#747474"/>
<circle cx="322.136" cy="357.614" r="0.965245" fill="#747474"/>
<circle cx="360.264" cy="354.236" r="7.23934" fill="#7E7E7E"/>
<rect x="2.64014" y="370.162" width="401.542" height="21.2354" fill="#EFEFEF"/>
<rect x="26.7715" y="376.919" width="44.4013" height="7.72196" rx="3.86098" fill="#787878"/>
<rect x="225.612" y="376.919" width="35.7141" height="7.72196" rx="3.86098" fill="#989898"/>
<rect x="275.805" y="376.919" width="27.0269" height="7.72196" rx="3.86098" fill="#989898"/>
<rect x="317.31" y="376.919" width="20.2701" height="7.72196" rx="3.86098" fill="#989898"/>
<rect x="352.059" y="376.919" width="20.2701" height="7.72196" rx="3.86098" fill="#989898"/>
<rect x="26.7715" y="414.563" width="172.779" height="100.385" rx="7.81848" fill="#C4C4C4"/>
<rect x="217.89" y="485.992" width="68.5324" height="28.9573" rx="7.81848" fill="#C4C4C4"/>
<rect x="217.89" y="451.243" width="68.5324" height="28.9573" rx="7.81848" fill="#C4C4C4"/>
<rect x="217.89" y="416.494" width="68.5324" height="28.9573" rx="7.81848" fill="#C4C4C4"/>
<path d="M26.7715 532.42C26.7715 528.102 30.2719 524.601 34.59 524.601H278.604C282.922 524.601 286.422 528.102 286.422 532.42V587.342H26.7715V532.42Z" fill="#C4C4C4"/>
<rect x="450.854" y="401.518" width="238.736" height="151.885" rx="16.5342" transform="rotate(90 450.854 401.518)" fill="#4333FF"/>
<line x1="8.43807" y1="-8.43807" x2="98.7751" y2="-8.43807" transform="matrix(1 0 0 -1 321.462 551.151)" stroke="#878787" stroke-width="16.8761" stroke-linecap="round"/>
<line x1="8.43807" y1="-8.43807" x2="98.7751" y2="-8.43807" transform="matrix(1 0 0 -1 321.462 577.954)" stroke="#878787" stroke-width="16.8761" stroke-linecap="round"/>
<line x1="329.9" y1="614.188" x2="393.434" y2="614.188" stroke="#5AAEFD" stroke-width="16.8761" stroke-linecap="round"/>
<rect x="314.315" y="418.92" width="121.508" height="117.934" rx="10.7213" fill="#5AAEFD"/>
<circle cx="361.667" cy="484.141" r="33.0574" fill="white"/>
<path d="M362.192 451.346C359.524 458.398 357.354 462.256 351.96 468.924C348.779 469.163 347.762 469.711 345.663 472.597C342.363 468.248 340.148 466.393 335.169 464.726C342.455 455.273 352.485 451.083 362.192 451.346Z" fill="white"/>
<path d="M357.732 474.171C356.76 470.966 355.771 469.706 351.96 468.662C357.257 463.003 359.268 459.392 362.192 451.346C377.409 451.346 391.839 461.578 394.463 480.993C381.508 474.518 374.025 471.492 357.732 474.171Z" fill="#76B5FF"/>
<path d="M353.796 481.517C356.967 479.441 357.791 477.874 357.732 474.433C372.093 472.154 380.334 473.724 394.462 481.517C396.036 497.784 385.017 511.951 369.538 516.149C368.1 499.36 364.914 491.597 353.796 481.517Z" fill="white"/>
<path d="M353.534 481.517C350.12 482.283 348.478 481.815 346.188 478.894C344.404 490.525 340.473 493.951 332.545 499.095C338.842 511.689 353.272 519.559 369.538 516.149C368.045 498.586 364.587 490.965 353.534 481.517Z" fill="#FF7676"/>
<path d="M328.872 480.73C334.921 480.365 338.219 479.46 343.827 475.745C343.414 478.348 343.562 479.793 345.663 482.304C343.572 490.255 340.5 493.93 332.283 499.358C329.517 493.021 328.545 489.09 328.872 480.73Z" fill="white"/>
<path d="M343.827 475.745L344.352 470.761C341.077 467.681 339.033 466.266 334.907 464.464C330.269 471.682 329.351 475.09 328.873 480.73C334.643 480.505 338.318 479.418 343.827 475.745Z" fill="#FDFF89"/>
<ellipse cx="351.435" cy="475.483" rx="8.65791" ry="8.65789" fill="#A5FFE9"/>
<path d="M407.133 414.962C409.616 409.52 417.348 409.52 419.832 414.962L421.329 418.244C422.726 421.305 426.108 422.934 429.372 422.117L432.872 421.242C438.675 419.79 443.496 425.835 440.789 431.17L439.157 434.387C437.635 437.388 438.47 441.048 441.144 443.091L444.01 445.281C448.764 448.913 447.043 456.451 441.184 457.661L437.652 458.391C434.356 459.072 432.016 462.006 432.086 465.37L432.16 468.977C432.284 474.958 425.318 478.313 420.719 474.487L417.946 472.18C415.359 470.028 411.605 470.028 409.019 472.18L406.246 474.487C401.647 478.313 394.68 474.958 394.804 468.977L394.879 465.37C394.949 462.006 392.608 459.072 389.313 458.391L385.78 457.661C379.922 456.451 378.201 448.913 382.955 445.281L385.821 443.091C388.495 441.048 389.33 437.388 387.807 434.387L386.175 431.17C383.468 425.835 388.289 419.79 394.093 421.242L397.592 422.117C400.857 422.934 404.239 421.305 405.635 418.244L407.133 414.962Z" fill="#FCFF57"/>
<path d="M375.963 510.051H314.315V526.133C314.315 532.054 319.115 536.854 325.036 536.854H425.102C431.023 536.854 435.823 532.054 435.823 526.133V518.985L375.963 510.051Z" fill="#FCFF57"/>
<path d="M422.475 611.001C424.98 612.35 424.98 615.943 422.475 617.293L413.48 622.14C411.099 623.423 408.211 621.699 408.211 618.994L408.211 609.3C408.211 606.595 411.099 604.871 413.48 606.154L422.475 611.001Z" fill="#5AAEFD"/>
<path d="M748.013 334.726C751.367 316.63 777.296 316.63 780.65 334.726C783.05 347.67 798.843 352.802 808.393 343.74C821.743 331.072 842.72 346.312 834.798 362.924C829.13 374.806 838.891 388.241 851.944 386.523C870.19 384.122 878.203 408.781 862.029 417.564C850.46 423.846 850.46 440.452 862.029 446.734C878.203 455.516 870.19 480.176 851.944 477.774C838.891 476.057 829.13 489.491 834.798 501.374C842.72 517.985 821.743 533.226 808.393 520.558C798.843 511.496 783.05 516.628 780.65 529.572C777.296 547.668 751.367 547.668 748.013 529.572C745.613 516.628 729.819 511.496 720.27 520.558C706.919 533.226 685.943 517.985 693.865 501.374C699.532 489.491 689.771 476.057 676.719 477.774C658.473 480.176 650.46 455.516 666.634 446.734C678.203 440.452 678.203 423.846 666.634 417.564C650.46 408.781 658.473 384.122 676.719 386.523C689.771 388.241 699.532 374.806 693.865 362.924C685.943 346.312 706.919 331.072 720.27 343.74C729.819 352.802 745.613 347.67 748.013 334.726Z" fill="#89F1FF"/>
<circle cx="764.333" cy="432.15" r="43.2727" fill="#00C1DB"/>
<path d="M584.507 402.637C586.49 391.939 601.819 391.939 603.802 402.637C605.221 410.29 614.558 413.324 620.204 407.967C628.097 400.477 640.499 409.488 635.815 419.309C632.464 426.334 638.235 434.277 645.952 433.261C656.74 431.841 661.477 446.42 651.915 451.612C645.075 455.326 645.075 465.144 651.915 468.858C661.477 474.051 656.74 488.63 645.952 487.21C638.235 486.194 632.464 494.137 635.815 501.162C640.499 510.983 628.097 519.993 620.204 512.504C614.558 507.147 605.221 510.18 603.802 517.833C601.819 528.532 586.49 528.532 584.507 517.833C583.088 510.18 573.75 507.147 568.105 512.504C560.212 519.993 547.81 510.983 552.494 501.162C555.844 494.137 550.074 486.194 542.357 487.21C531.569 488.63 526.832 474.051 536.394 468.858C543.234 465.144 543.234 455.326 536.394 451.612C526.832 446.42 531.569 431.841 542.357 433.261C550.074 434.277 555.844 426.334 552.494 419.309C547.81 409.488 560.212 400.477 568.105 407.967C573.75 413.324 583.088 410.29 584.507 402.637Z" fill="#89F1FF"/>
<circle cx="594.154" cy="460.239" r="25.5834" fill="#00C1DB"/>
<path d="M615.565 524.217C618.266 509.644 639.147 509.644 641.848 524.217C643.781 534.641 656.499 538.774 664.19 531.476C674.941 521.275 691.834 533.548 685.454 546.925C680.89 556.495 688.75 567.314 699.262 565.93C713.956 563.996 720.408 583.855 707.384 590.927C698.067 595.986 698.067 609.36 707.384 614.419C720.408 621.491 713.956 641.35 699.262 639.416C688.75 638.032 680.89 648.851 685.454 658.421C691.834 671.798 674.941 684.071 664.19 673.87C656.499 666.572 643.781 670.705 641.848 681.129C639.147 695.701 618.266 695.701 615.565 681.129C613.633 670.705 600.914 666.572 593.223 673.87C582.472 684.071 565.579 671.798 571.96 658.421C576.523 648.851 568.663 638.032 558.152 639.416C543.458 641.35 537.005 621.491 550.03 614.419C559.347 609.36 559.347 595.986 550.03 590.927C537.005 583.855 543.458 563.996 558.152 565.93C568.663 567.314 576.523 556.495 571.96 546.925C565.579 533.548 582.472 521.275 593.223 531.476C600.914 538.774 613.633 534.641 615.565 524.217Z" fill="#89F1FF"/>
<circle cx="628.712" cy="602.671" r="34.8479" fill="#00C1DB"/>
</g>
<defs>
<clipPath id="clip0">
<rect x="0.901367" y="0.253662" width="896" height="752" fill="white"/>
</clipPath>
</defs>
</svg>
