<svg width="42" height="41" viewBox="0 0 42 41" fill="none" xmlns="http://www.w3.org/2000/svg">
<path fill-rule="evenodd" clip-rule="evenodd" d="M20.8414 0.072998C9.62495 0.072998 0.532227 9.16572 0.532227 20.3822C0.532227 31.5986 9.62495 40.6913 20.8414 40.6913C32.0578 40.6913 41.1506 31.5986 41.1506 20.3822C41.1506 9.16572 32.0578 0.072998 20.8414 0.072998ZM29.589 15.8717H23.8522V14.2282H29.589V15.8717ZM29.0835 17.2516C29.7752 17.5557 30.3445 18.0382 30.7928 18.6966C31.2017 19.2771 31.4641 19.9507 31.5838 20.7159C31.6539 21.1632 31.6819 21.8116 31.6704 22.6548H24.4574C24.5007 23.6336 24.8421 24.321 25.4942 24.7143C25.8891 24.9593 26.3642 25.0825 26.9221 25.0825C27.5092 25.0825 27.9894 24.9329 28.3575 24.6351C28.56 24.473 28.7384 24.2494 28.8912 23.9629H31.5341C31.4641 24.5409 31.1431 25.1302 30.575 25.7283C29.6885 26.677 28.4467 27.152 26.8507 27.152C25.5324 27.152 24.3696 26.7524 23.3646 25.9507C22.3546 25.1503 21.8527 23.846 21.8527 22.0416C21.8527 20.349 22.3074 19.051 23.2156 18.1475C24.1263 17.2465 25.3045 16.7929 26.7552 16.7929C27.6175 16.7929 28.3932 16.9462 29.0835 17.2516ZM20.5623 17.0354C20.5623 16.2525 20.3572 15.5815 19.9484 15.0199C19.267 14.1051 18.1117 13.6364 16.4788 13.6125H10.0097V26.819H16.0419C16.7221 26.819 17.3513 26.7612 17.9334 26.6418C18.5155 26.5212 19.0186 26.3013 19.4453 25.9783C19.8248 25.6969 20.1407 25.3501 20.3929 24.9392C20.7916 24.3184 20.9903 23.616 20.9903 22.8332C20.9903 22.0742 20.8158 21.4283 20.4693 20.8981C20.1191 20.3665 19.6045 19.9783 18.9218 19.732C19.3714 19.5058 19.7115 19.2545 19.9433 18.9805C20.3572 18.4905 20.5623 17.8408 20.5623 17.0354Z" fill="#3C3C3C"/>
<path fill-rule="evenodd" clip-rule="evenodd" d="M12.6782 15.9058V18.8197H15.9338C16.5134 18.8197 16.9859 18.7104 17.3502 18.4918C17.7119 18.2731 17.8941 17.8861 17.8941 17.3332C17.8941 16.7162 17.6546 16.3104 17.1757 16.1118C16.7605 15.9749 16.2331 15.9058 15.5925 15.9058H12.6782ZM25.2116 19.458C24.8461 19.8299 24.6155 20.3338 24.5213 20.9696H28.9831C28.9359 20.2911 28.7041 19.7784 28.294 19.4253C27.8788 19.0747 27.368 18.9 26.7566 18.9C26.0943 18.9 25.5772 19.086 25.2116 19.458ZM12.6782 24.527V21.0048H15.9746C16.5477 21.0099 16.9948 21.0853 17.3132 21.2285C17.8826 21.4861 18.1653 21.9573 18.1653 22.6459C18.1653 23.4576 17.8724 24.0055 17.2852 24.2945C16.963 24.4491 16.5095 24.527 15.9287 24.527H12.6782Z" fill="#3C3C3C"/>
</svg>
