<svg width="1268" height="1073" viewBox="0 0 1268 1073" fill="none" xmlns="http://www.w3.org/2000/svg">
<circle cx="374.888" cy="644.886" r="374.888" fill="#FFF500"/>
<path d="M737.735 511.768C739.279 506.877 739.324 504.143 737.735 499.255H734.737H731.739V485.438C730.97 480.883 729.096 480.009 724.44 479.964V476.053L727.308 474.489C727.887 472.555 727.801 471.47 727.308 469.536L724.44 467.19C723.927 465.249 723.968 464.178 724.44 462.237L722.615 458.587L720.79 462.237C721.262 464.178 721.303 465.249 720.79 467.19L717.923 469.536C717.429 471.47 717.344 472.555 717.923 474.489L720.79 476.053V479.964C716.135 480.009 714.261 480.883 713.491 485.438V499.255H710.493H707.495C705.906 504.143 705.951 506.877 707.495 511.768H710.493H713.491V523.759H716.146V537.055L718.326 686.951L716.146 690.861V696.335L718.326 698.942L716.146 838.408L709.972 841.808V849.457L713.604 852.432V871.556L706.34 942.528L702.707 947.203L706.34 950.457V957.403L695.443 963.896C694.962 967.441 694.869 969.432 695.443 972.976L713.604 982.783H731.627L749.788 972.976C750.362 969.432 750.269 967.441 749.788 963.896L738.891 957.403V950.457L742.523 947.203L738.891 942.528L731.627 871.556V852.432L735.259 849.457V841.808L729.084 838.408L726.905 698.942L729.084 696.335V690.861L726.905 686.951L729.084 537.055V523.759H731.739V511.768H734.737H737.735Z" fill="#3C3C3C"/>
<path fill-rule="evenodd" clip-rule="evenodd" d="M782.313 365V372.56H779.967V376.47C778.027 379.449 777.035 381.113 776.057 384.03C772.486 387.783 770.339 389.476 765.89 390.808C764.318 397.004 762.22 399.941 757.808 404.885L751.812 409.578C756.272 408.501 760.402 407.632 764.414 406.95C768.686 406.224 772.825 405.711 777.086 405.385C780.527 405.122 784.049 404.982 787.785 404.951C791.81 404.919 796.085 405.013 800.779 405.22C804.909 405.401 809.363 405.669 814.257 406.012L806.696 402.725L800.779 390.808L789.766 385.631L784.178 376.47H785.821V372.56H784.178L782.313 365ZM800.779 458.587H793.703H784.178H778.185H772.192H765.89L761.979 464.062C770.203 466.396 772.709 469.54 773.971 477.878C775.767 478.104 776.759 478.382 778.403 479.964V484.395L779.967 485.438C782.473 514.557 758.281 531.546 737.735 511.768H734.737L741.254 521.394C741.254 521.394 742.599 526.169 741.254 528.673C741.126 528.912 741.021 529.168 740.919 529.416C740.612 530.162 740.331 530.846 739.516 530.846C738.544 530.846 737.735 529.107 737.735 529.107L736.474 530.846C736.474 530.846 737.956 533.329 739.516 533.453C741.145 533.584 741.993 532.397 742.933 531.081L742.936 531.076L742.95 531.058C743 530.987 743.05 530.917 743.101 530.846C744.983 528.228 743.101 522.589 743.101 522.589C771.023 527.695 784.495 511.768 784.495 484.395C789.989 473.325 793.054 468.403 798.478 464.062H803.902L800.779 458.587ZM734.737 499.255H737.735C737.735 499.255 738.286 496.792 739.516 496.079C740.727 495.377 741.843 495.464 743.101 496.079C744.69 496.856 745.383 499.991 745.383 499.991C745.383 499.991 747.841 497.171 747.556 495.102C747.121 491.942 743.54 490.723 740.385 491.19C736.582 491.754 734.737 499.255 734.737 499.255Z" fill="#3C3C3C"/>
<path fill-rule="evenodd" clip-rule="evenodd" d="M662.918 365V372.56H665.264V376.47C667.203 379.449 668.196 381.113 669.174 384.03C672.744 387.783 674.892 389.476 679.341 390.808C680.913 397.004 683.01 399.941 687.422 404.885L693.418 409.578C688.958 408.501 684.828 407.632 680.816 406.95C676.544 406.224 672.406 405.711 668.144 405.385C664.703 405.122 661.182 404.982 657.445 404.951C653.42 404.919 649.145 405.013 644.452 405.22C640.321 405.401 635.867 405.669 630.974 406.012L638.534 402.725L644.452 390.808L655.464 385.631L661.053 376.47H659.409V372.56H661.053L662.918 365ZM644.452 458.587L641.329 464.062H646.753C652.177 468.403 655.242 473.325 660.735 484.395C660.735 511.768 674.207 527.695 702.129 522.589C702.129 522.589 700.247 528.228 702.129 530.846C702.186 530.924 702.242 531.003 702.297 531.081C703.237 532.397 704.085 533.584 705.714 533.453C707.274 533.329 708.756 530.846 708.756 530.846L707.495 529.107C707.495 529.107 706.686 530.846 705.714 530.846C704.899 530.846 704.618 530.162 704.312 529.416C704.21 529.168 704.105 528.912 703.976 528.673C702.631 526.169 703.976 521.394 703.976 521.394L710.493 511.768H707.495C686.95 531.546 662.757 514.557 665.264 485.438L666.828 484.395V479.964C668.472 478.382 669.463 478.104 671.26 477.878C672.522 469.54 675.027 466.396 683.251 464.062L679.341 458.587H673.038H667.045H661.053H651.528H644.452ZM710.493 499.255H707.495C707.495 499.255 706.944 496.792 705.714 496.079C704.503 495.377 703.387 495.464 702.129 496.079C700.54 496.856 699.848 499.991 699.848 499.991C699.848 499.991 697.39 497.171 697.675 495.102C698.109 491.942 701.69 490.723 704.845 491.19C708.649 491.754 710.493 499.255 710.493 499.255Z" fill="#3C3C3C"/>
<path d="M751.812 409.578L757.808 404.885C762.22 399.941 764.318 397.004 765.89 390.808C770.339 389.476 772.486 387.783 776.057 384.03C777.035 381.113 778.027 379.449 779.967 376.47V372.56H782.313V365L784.178 372.56H785.821V376.47H784.178L789.766 385.631L800.779 390.808L806.696 402.725L814.257 406.012M751.812 409.578C755.094 410.12 755.895 411.429 756.244 414.792V422.873L765.89 458.587M751.812 409.578C756.272 408.501 760.402 407.632 764.414 406.95M765.89 458.587L761.979 464.062C770.203 466.396 772.709 469.54 773.971 477.878C775.767 478.104 776.759 478.382 778.403 479.964V484.395L779.967 485.438C782.473 514.557 758.281 531.546 737.735 511.768M765.89 458.587H772.192M737.735 511.768C739.279 506.877 739.324 504.143 737.735 499.255M737.735 511.768H734.737M737.735 499.255H734.737M737.735 499.255C737.735 499.255 738.286 496.792 739.516 496.079C740.727 495.377 741.843 495.464 743.101 496.079C744.69 496.856 745.383 499.991 745.383 499.991C745.383 499.991 747.841 497.171 747.556 495.102C747.121 491.942 743.54 490.723 740.385 491.19C736.582 491.754 734.737 499.255 734.737 499.255M734.737 499.255H731.739V485.438C730.97 480.883 729.096 480.009 724.44 479.964V476.053L727.308 474.489C727.887 472.555 727.801 471.47 727.308 469.536L724.44 467.19C723.927 465.249 723.968 464.178 724.44 462.237L722.615 458.587L720.79 462.237C721.262 464.178 721.303 465.249 720.79 467.19L717.923 469.536C717.429 471.47 717.344 472.555 717.923 474.489L720.79 476.053V479.964C716.135 480.009 714.261 480.883 713.491 485.438V499.255H710.493M734.737 511.768H731.739V523.759H729.084V537.055L726.905 686.951L729.084 690.861V696.335L726.905 698.942L729.084 838.408L735.259 841.808V849.457L731.627 852.432V871.556L738.891 942.528L742.523 947.203L738.891 950.457V957.403L749.788 963.896C750.269 967.441 750.362 969.432 749.788 972.976L731.627 982.783H713.604L695.443 972.976C694.869 969.432 694.962 967.441 695.443 963.896L706.34 957.403V950.457L702.707 947.203L706.34 942.528L713.604 871.556V852.432L709.972 849.457V841.808L716.146 838.408L718.326 698.942L716.146 696.335V690.861L718.326 686.951L716.146 537.055V523.759H713.491V511.768H710.493M734.737 511.768L741.254 521.394C741.254 521.394 742.599 526.169 741.254 528.673C741.126 528.912 741.021 529.168 740.919 529.416C740.612 530.162 740.331 530.846 739.516 530.846C738.544 530.846 737.735 529.107 737.735 529.107L736.474 530.846C736.474 530.846 737.956 533.329 739.516 533.453C741.145 533.584 741.993 532.397 742.933 531.081M800.779 458.587L803.902 464.062H798.478C793.054 468.403 789.989 473.325 784.495 484.395C784.495 511.768 771.023 527.695 743.101 522.589C743.101 522.589 744.983 528.228 743.101 530.846C743.05 530.917 743 530.987 742.95 531.058M800.779 458.587C800.779 458.587 803.902 427.38 808.833 411.272C809.696 408.45 814.257 406.012 814.257 406.012M800.779 458.587H793.703M814.257 406.012C809.363 405.669 804.909 405.401 800.779 405.22M800.779 405.22L793.703 458.587M800.779 405.22C796.085 405.013 791.81 404.919 787.785 404.951M793.703 458.587H784.178M764.414 406.95L772.192 458.587M764.414 406.95C768.686 406.224 772.825 405.711 777.086 405.385M772.192 458.587H778.185M787.785 404.951L784.178 458.587M787.785 404.951C784.049 404.982 780.527 405.122 777.086 405.385M784.178 458.587H778.185M778.185 458.587L777.086 405.385M693.418 409.578L687.422 404.885C683.01 399.941 680.913 397.004 679.341 390.808C674.892 389.476 672.744 387.783 669.174 384.03C668.196 381.113 667.203 379.449 665.264 376.47V372.56H662.918V365L661.053 372.56H659.409V376.47H661.053L655.464 385.631L644.452 390.808L638.534 402.725L630.974 406.012M693.418 409.578C690.137 410.12 689.335 411.429 688.986 414.792V422.873L679.341 458.587M693.418 409.578C688.958 408.501 684.828 407.632 680.816 406.95M679.341 458.587L683.251 464.062C675.027 466.396 672.522 469.54 671.26 477.878C669.463 478.104 668.472 478.382 666.828 479.964V484.395L665.264 485.438C662.757 514.557 686.95 531.546 707.495 511.768M679.341 458.587H673.038M707.495 511.768C705.951 506.877 705.906 504.143 707.495 499.255M707.495 511.768H710.493M707.495 499.255H710.493M707.495 499.255C707.495 499.255 706.944 496.792 705.714 496.079C704.503 495.377 703.387 495.464 702.129 496.079C700.54 496.856 699.848 499.991 699.848 499.991C699.848 499.991 697.39 497.171 697.675 495.102C698.109 491.942 701.69 490.723 704.845 491.19C708.649 491.754 710.493 499.255 710.493 499.255M710.493 511.768L703.976 521.394C703.976 521.394 702.631 526.169 703.976 528.673C704.105 528.912 704.21 529.168 704.312 529.416C704.618 530.162 704.899 530.846 705.714 530.846C706.686 530.846 707.495 529.107 707.495 529.107L708.756 530.846C708.756 530.846 707.274 533.329 705.714 533.453C704.085 533.584 703.237 532.397 702.297 531.081C702.242 531.003 702.186 530.924 702.129 530.846C700.247 528.228 702.129 522.589 702.129 522.589C674.207 527.695 660.735 511.768 660.735 484.395C655.242 473.325 652.177 468.403 646.753 464.062H641.329L644.452 458.587M644.452 458.587C644.452 458.587 641.329 427.38 636.398 411.272C635.534 408.45 630.974 406.012 630.974 406.012M644.452 458.587H651.528M630.974 406.012C635.867 405.669 640.321 405.401 644.452 405.22M644.452 405.22L651.528 458.587M644.452 405.22C649.145 405.013 653.42 404.919 657.445 404.951M651.528 458.587H661.053M680.816 406.95L673.038 458.587M680.816 406.95C676.544 406.224 672.406 405.711 668.144 405.385M673.038 458.587H667.045M657.445 404.951L661.053 458.587M657.445 404.951C661.182 404.982 664.703 405.122 668.144 405.385M661.053 458.587H667.045M667.045 458.587L668.144 405.385M742.933 531.081L742.936 531.076M742.933 531.081C742.934 531.079 742.935 531.078 742.936 531.076M742.936 531.076L742.95 531.058M742.936 531.076C742.941 531.07 742.945 531.064 742.95 531.058" stroke="#3C3C3C" stroke-width="2"/>
<circle cx="519.698" cy="432.671" r="6.69394" stroke="#3C3C3C" stroke-width="2"/>
<circle cx="500.958" cy="451.411" r="3.34171" stroke="#3C3C3C" stroke-width="2"/>
<circle cx="503.18" cy="408.041" r="2.75718" stroke="#3C3C3C" stroke-width="2"/>
<circle cx="541.531" cy="406.162" r="4.63572" stroke="#3C3C3C" stroke-width="2"/>
<circle r="6.69394" transform="matrix(-1 0 0 1 563.364 502.862)" stroke="#3C3C3C" stroke-width="2"/>
<circle r="6.69394" transform="matrix(-1 0 0 1 745.002 369.321)" stroke="#3C3C3C" stroke-width="2"/>
<circle r="6.69394" transform="matrix(-1 0 0 1 771.69 329)" stroke="#3C3C3C" stroke-width="2"/>
<circle r="6.69394" transform="matrix(-1 0 0 1 535.895 361.627)" stroke="#3C3C3C" stroke-width="2"/>
<circle r="6.69394" transform="matrix(-1 0 0 1 714.431 438.306)" stroke="#3C3C3C" stroke-width="2"/>
<circle r="6.69394" transform="matrix(-1 0 0 1 340.635 365.384)" stroke="#3C3C3C" stroke-width="2"/>
<circle r="3.34171" transform="matrix(-1 0 0 1 582.104 521.602)" stroke="#3C3C3C" stroke-width="2"/>
<circle r="3.34171" transform="matrix(-1 0 0 1 682.316 480.695)" stroke="#3C3C3C" stroke-width="2"/>
<circle r="2.75718" transform="matrix(-1 0 0 1 579.883 478.232)" stroke="#3C3C3C" stroke-width="2"/>
<circle r="4.63572" transform="matrix(-1 0 0 1 541.531 476.353)" stroke="#3C3C3C" stroke-width="2"/>
<circle r="4.63572" transform="matrix(-1 0 0 1 613.027 424.977)" stroke="#3C3C3C" stroke-width="2"/>
<circle cx="501.616" cy="521.413" r="6.69394" transform="rotate(-180 501.616 521.413)" stroke="#3C3C3C" stroke-width="2"/>
<circle cx="415.708" cy="417.283" r="6.69394" transform="rotate(-180 415.708 417.283)" stroke="#3C3C3C" stroke-width="2"/>
<circle cx="706.737" cy="373.078" r="6.69394" transform="rotate(-180 706.737 373.078)" stroke="#3C3C3C" stroke-width="2"/>
<circle cx="520.356" cy="502.672" r="3.34171" transform="rotate(-180 520.356 502.672)" stroke="#3C3C3C" stroke-width="2"/>
<circle cx="518.135" cy="546.042" r="2.75718" transform="rotate(-180 518.135 546.042)" stroke="#3C3C3C" stroke-width="2"/>
<circle cx="665.886" cy="571.799" r="2.75718" transform="rotate(-180 665.886 571.799)" stroke="#3C3C3C" stroke-width="2"/>
<circle cx="506.937" cy="729.637" r="2.75718" transform="rotate(-180 506.937 729.637)" stroke="#3C3C3C" stroke-width="2"/>
<circle cx="499.423" cy="707.234" r="2.75718" transform="rotate(-180 499.423 707.234)" stroke="#3C3C3C" stroke-width="2"/>
<circle cx="636.568" cy="717.867" r="2.75718" transform="rotate(-180 636.568 717.867)" stroke="#3C3C3C" stroke-width="2"/>
<circle cx="506.937" cy="625.92" r="2.75718" transform="rotate(-180 506.937 625.92)" stroke="#3C3C3C" stroke-width="2"/>
<circle cx="479.783" cy="547.921" r="4.63572" transform="rotate(-180 479.783 547.921)" stroke="#3C3C3C" stroke-width="2"/>
<circle cx="490.981" cy="790.853" r="4.63572" transform="rotate(-180 490.981 790.853)" stroke="#3C3C3C" stroke-width="2"/>
<circle cx="555.67" cy="588.393" r="4.63572" transform="rotate(-180 555.67 588.393)" stroke="#3C3C3C" stroke-width="2"/>
<circle r="10.3744" transform="matrix(1 0 0 -1 637.367 609.679)" stroke="#3C3C3C" stroke-width="2"/>
<circle r="10.3744" transform="matrix(1 0 0 -1 586.446 354.01)" stroke="#3C3C3C" stroke-width="2"/>
<circle r="10.3744" transform="matrix(1 0 0 -1 473.971 354.01)" stroke="#3C3C3C" stroke-width="2"/>
<circle r="10.3744" transform="matrix(1 0 0 -1 321.567 295.126)" stroke="#3C3C3C" stroke-width="2"/>
<circle r="10.3744" transform="matrix(1 0 0 -1 801.333 357.946)" stroke="#3C3C3C" stroke-width="2"/>
<circle r="10.3744" transform="matrix(1 0 0 -1 553.206 660.889)" stroke="#3C3C3C" stroke-width="2"/>
<circle r="5.41861" transform="matrix(1 0 0 -1 609.663 581.975)" stroke="#3C3C3C" stroke-width="2"/>
<circle r="5.41861" transform="matrix(1 0 0 -1 742.803 609.679)" stroke="#3C3C3C" stroke-width="2"/>
<circle r="4.55447" transform="matrix(1 0 0 -1 612.947 646.091)" stroke="#3C3C3C" stroke-width="2"/>
<circle r="4.55447" transform="matrix(1 0 0 -1 577.762 785.076)" stroke="#3C3C3C" stroke-width="2"/>
<circle r="7.33163" transform="matrix(1 0 0 -1 669.643 648.868)" stroke="#3C3C3C" stroke-width="2"/>
<path d="M337.495 279.555C353.045 280.596 368.084 277.524 381.932 271.107C388.578 273.136 395.549 274.439 402.766 274.921C420.832 276.13 438.058 272.042 453.01 263.952C463.892 301.844 496.733 330.54 537.354 333.258C555.878 334.498 573.52 330.167 588.732 321.665C606.628 338.845 630.195 350.009 656.575 351.774C703.824 354.936 746.146 327.016 764.675 285.079C766.647 285.32 768.637 285.509 770.642 285.643C831.504 289.715 884.192 242.216 888.381 179.615C892.57 117.015 846.68 62.919 785.818 58.8465C738.57 55.6848 696.247 83.6046 677.718 125.542C675.746 125.3 673.757 125.112 671.751 124.978C665.087 124.532 658.521 124.704 652.105 125.447C642.436 85.6063 608.738 54.9884 566.712 52.1762C527.001 49.519 491.352 72.4577 474.982 107.219C467.228 99.553 458.184 93.2248 448.177 88.6247C433.274 42.8793 398.488 9.73062 355.741 6.87022C295.339 2.8284 242.633 60.8403 237.609 135.918C232.585 210.997 277.092 275.514 337.495 279.555Z" stroke="#3C3C3C" stroke-width="2"/>
<path d="M318.2 820.189H449.747L1060.97 820.189C1085.78 820.189 1095.38 852.489 1074.59 866.037C1060.59 875.156 1059.34 895.184 1072.08 905.977L1119.5 946.129C1170.12 988.991 1139.81 1071.69 1073.49 1071.69L314.814 1071.69C304.522 1071.69 296.179 1063.35 296.179 1053.06C296.179 1042.77 304.522 1034.42 314.814 1034.42H437.945C444.463 1034.42 449.747 1029.14 449.747 1022.62C449.747 1016.1 444.463 1010.82 437.945 1010.82H222.264C210.258 1010.82 200.524 1001.09 200.524 989.08C200.524 977.073 210.258 967.34 222.264 967.34H378.17C387.775 967.34 395.562 959.553 395.562 949.948C395.562 940.343 387.775 932.556 378.17 932.556H280.651C270.017 932.556 261.396 923.935 261.396 913.301C261.396 902.666 270.017 894.045 280.651 894.045H329.721C337.954 894.045 344.629 887.371 344.629 879.138C344.629 870.905 337.954 864.231 329.721 864.231H318.2C306.038 864.231 296.179 854.372 296.179 842.21C296.179 830.048 306.038 820.189 318.2 820.189Z" stroke="#3B3B3B" stroke-width="2"/>
<ellipse cx="761.467" cy="973.695" rx="4.66617" ry="1.63941" fill="#3B3B3B"/>
<ellipse cx="752.135" cy="978.662" rx="4.66617" ry="1.63941" fill="#3B3B3B"/>
<ellipse cx="766.133" cy="980.302" rx="4.66617" ry="1.63941" fill="#3B3B3B"/>
<ellipse cx="742.803" cy="984.807" rx="4.66617" ry="1.63941" fill="#3B3B3B"/>
<ellipse cx="757.889" cy="984.807" rx="4.66617" ry="1.63941" fill="#3B3B3B"/>
<ellipse cx="729.493" cy="988.085" rx="4.66617" ry="1.63941" fill="#3B3B3B"/>
<ellipse cx="745.11" cy="990.951" rx="4.66617" ry="1.63941" fill="#3B3B3B"/>
<ellipse cx="729.493" cy="994.23" rx="4.66617" ry="1.63941" fill="#3B3B3B"/>
<ellipse cx="713.877" cy="990.951" rx="4.66617" ry="1.63941" fill="#3B3B3B"/>
<ellipse cx="704.545" cy="986.446" rx="4.66617" ry="1.63941" fill="#3B3B3B"/>
<ellipse cx="696.634" cy="981.528" rx="4.66617" ry="1.63941" fill="#3B3B3B"/>
<ellipse cx="691.968" cy="987.673" rx="4.66617" ry="1.63941" fill="#3B3B3B"/>
<ellipse cx="701.3" cy="994.23" rx="4.66617" ry="1.63941" fill="#3B3B3B"/>
<ellipse cx="717.558" cy="997.509" rx="4.66617" ry="1.63941" fill="#3B3B3B"/>
</svg>
