<svg width="83" height="69" viewBox="0 0 83 69" fill="none" xmlns="http://www.w3.org/2000/svg">
<path d="M1.93164 32.2136H81.5743V67.9805H1.93164V32.2136Z" stroke="#3C3C3C" stroke-width="2"/>
<path d="M1.93164 13.3303H81.5743V35.0972C81.5743 42.8292 75.3063 49.0972 67.5743 49.0972H15.9317C8.19967 49.0972 1.93164 42.8292 1.93164 35.0972V13.3303Z" fill="#FDFDFD" stroke="#3C3C3C" stroke-width="2"/>
<path d="M28.7046 8.60582V13.3046H23.2544V1.71777H60.2516V13.3046H55.3436V8.60582V7.60582H54.3436H29.7046H28.7046V8.60582Z" stroke="#3C3C3C" stroke-width="2"/>
<rect x="32.9009" y="34.9512" width="17.4164" height="10.5564" stroke="#3C3C3C" stroke-width="2"/>
<rect x="19.647" y="34.9512" width="5.5034" height="10.5564" stroke="#3C3C3C" stroke-width="2"/>
<rect x="58.356" y="34.9512" width="5.5034" height="10.5564" stroke="#3C3C3C" stroke-width="2"/>
<rect x="19.647" y="52.8669" width="5.5034" height="4.73758" stroke="#3C3C3C" stroke-width="2"/>
<rect x="58.356" y="52.8669" width="5.5034" height="4.73758" stroke="#3C3C3C" stroke-width="2"/>
</svg>
