<svg width="1268" height="802" viewBox="0 0 1268 802" fill="none" xmlns="http://www.w3.org/2000/svg">
<g clip-path="url(#clip0)">
<circle cx="374.888" cy="374.888" r="374.888" fill="#FFF500"/>
<path d="M356.462 418.73L383.454 363.79L241.01 290.093L362.2 364.353L356.462 418.73Z" fill="#3C3C3C"/>
<path fill-rule="evenodd" clip-rule="evenodd" d="M356.462 418.73L383.454 363.79L241.01 290.093L362.2 364.353L356.462 418.73Z" fill="#3C3C3C"/>
<path d="M241.01 290.093L419.225 351.895L383.454 363.79M241.01 290.093L383.454 363.79M241.01 290.093L308.163 376.973M241.01 290.093L362.2 364.353M308.163 376.973L362.2 364.353M308.163 376.973L319.517 374.321L356.462 418.73M356.462 418.73L383.454 363.79M356.462 418.73L362.2 364.353" stroke="#3C3C3C" stroke-width="2"/>
<path d="M408.654 394.252C408.654 394.252 478.889 442.088 565.642 457.813C687.549 479.908 773.88 419.017 781.725 356.772C790.823 284.58 743.079 249.638 657.03 250.077C586.586 250.435 549.573 271.738 528.448 328.095C491.696 426.143 673.462 495.791 795.505 489.393C1115.64 472.612 1325.61 103 1325.61 103" stroke="#3C3C3C" stroke-width="2" stroke-dasharray="10 20"/>
</g>
<defs>
<clipPath id="clip0">
</clipPath>
</defs>
</svg>
