<svg width="1303" height="750" viewBox="0 0 1303 750" fill="none" xmlns="http://www.w3.org/2000/svg">
<circle cx="375.563" cy="374.888" r="374.888" fill="#FFF500"/>
<path d="M332.137 361.521L359.128 306.581L216.684 232.883L337.874 307.144L332.137 361.521Z" fill="#3C3C3C"/>
<path fill-rule="evenodd" clip-rule="evenodd" d="M332.137 361.521L359.128 306.581L216.684 232.883L337.874 307.144L332.137 361.521Z" fill="#3C3C3C"/>
<path d="M216.684 232.883L394.9 294.686L359.128 306.581M216.684 232.883L359.128 306.581M216.684 232.883L283.837 319.764M216.684 232.883L337.874 307.144M283.837 319.764L337.874 307.144M283.837 319.764L295.192 317.112L332.137 361.521M332.137 361.521L359.128 306.581M332.137 361.521L337.874 307.144" stroke="#3C3C3C" stroke-width="2"/>
<path d="M384.329 337.043C384.329 337.043 454.563 384.879 541.317 400.603C663.223 422.699 749.555 361.807 757.4 299.563C766.498 227.371 718.753 192.429 632.705 192.867C562.261 193.226 525.247 214.529 504.123 270.885C467.371 368.934 649.137 438.582 771.18 432.184C1091.31 415.403 1301.28 45.7908 1301.28 45.7908" stroke="#3C3C3C" stroke-width="2" stroke-dasharray="10 20"/>
</svg>
