<svg width="42" height="41" viewBox="0 0 42 41" fill="none" xmlns="http://www.w3.org/2000/svg">
<path fill-rule="evenodd" clip-rule="evenodd" d="M21.2232 0.072998C10.0068 0.072998 0.914062 9.16572 0.914062 20.3822C0.914062 31.5986 10.0068 40.6913 21.2232 40.6913C32.4397 40.6913 41.5324 31.5986 41.5324 20.3822C41.5324 9.16572 32.4397 0.072998 21.2232 0.072998ZM31.834 22.5443C31.9804 21.8312 32.055 21.0997 32.055 20.3672C32.055 19.6342 31.9804 18.9011 31.834 18.1896C31.6911 17.4935 31.4796 16.809 31.2024 16.1568C30.9317 15.5146 30.5958 14.8956 30.2034 14.3188C29.8168 13.7453 29.3714 13.2086 28.8822 12.718C28.3919 12.23 27.8524 11.7869 27.2796 11.3992C26.7009 11.0078 26.0816 10.6725 25.4395 10.4C24.7852 10.1237 24.1003 9.91196 23.4048 9.7704C22.6907 9.62464 21.9566 9.55068 21.223 9.55068C20.4889 9.55068 19.7548 9.62464 19.0418 9.7704C18.3452 9.91192 17.6603 10.1237 17.0065 10.4C16.3645 10.6725 15.7446 11.0078 15.1659 11.3992C14.5931 11.7869 14.0536 12.23 13.5644 12.718C13.0746 13.2086 12.6293 13.7453 12.2421 14.3188C11.8518 14.8956 11.5154 15.5146 11.2435 16.1568C10.9663 16.809 10.7543 17.4935 10.6109 18.1896C10.4659 18.9011 10.3919 19.6342 10.3919 20.3672C10.3919 21.0997 10.466 21.8312 10.6109 22.5443C10.7542 23.2403 10.9663 23.9238 11.2435 24.5771C11.5153 25.2188 11.8517 25.8373 12.2421 26.414C12.6292 26.9871 13.0746 27.5247 13.5643 28.0148C14.0536 28.5028 14.5931 28.947 15.1659 29.3352C15.7445 29.725 16.3644 30.0603 17.0065 30.3324C17.6602 30.6081 18.3452 30.8193 19.0418 30.9619C19.7547 31.1087 20.4889 31.1837 21.223 31.1837C21.9566 31.1837 22.6907 31.1087 23.4047 30.9619C24.1002 30.8193 24.7852 30.6081 25.4395 30.3324C26.0816 30.0603 26.7009 29.725 27.2795 29.3352C27.8523 28.947 28.3918 28.5028 28.8821 28.0148C29.3714 27.5247 29.8167 26.9871 30.2033 26.414C30.5958 25.8373 30.9317 25.2189 31.2024 24.5771C31.4796 23.9238 31.6911 23.2404 31.834 22.5443Z" fill="#3C3C3C"/>
<path fill-rule="evenodd" clip-rule="evenodd" d="M21.2229 11.1309C23.5649 11.1309 25.7033 12.0007 27.3318 13.4346L27.331 13.4358C27.2874 13.5011 25.963 15.4819 22.5013 16.7778C20.9628 13.9571 19.2773 11.7027 19.0583 11.4098L19.0432 11.3897C19.7419 11.2217 20.4713 11.1309 21.2229 11.1309ZM23.8277 19.4935C23.6358 19.043 23.4279 18.5946 23.2132 18.1542C26.8419 16.6743 28.3298 14.5515 28.3659 14.5001L28.3664 14.4994C29.6643 16.0727 30.4487 18.0823 30.4698 20.272L30.4589 20.2697C30.2161 20.2192 27.1445 19.5804 24.0277 19.972C23.9626 19.8136 23.896 19.6552 23.8277 19.4935ZM30.3557 21.831C29.9442 24.4053 28.4691 26.6278 26.392 28.0274C26.2979 27.4707 25.8049 24.7592 24.5916 21.4297C27.5773 20.9517 30.1653 21.7698 30.3557 21.831ZM22.8584 21.8576L22.8359 21.8648C22.8229 21.8689 22.8099 21.873 22.7971 21.8777C17.3393 23.7776 15.557 27.6065 15.5377 27.6483C17.1081 28.8677 19.0778 29.6035 21.223 29.6035C22.504 29.6035 23.7242 29.343 24.8344 28.8715C24.6974 28.0644 24.1601 25.2357 22.8584 21.8576ZM21.4773 18.7574C16.7144 20.1812 12.1441 20.0788 11.9801 20.0725C11.9793 20.1033 11.9783 20.1337 11.9773 20.1641L11.9773 20.1641L11.9773 20.1641C11.975 20.2317 11.9727 20.2986 11.9727 20.3672C11.9727 22.7401 12.8692 24.9034 14.3428 26.5391C14.3396 26.5343 16.871 22.0498 21.8629 20.4379C21.9834 20.3978 22.1062 20.3619 22.2278 20.327C21.9956 19.8021 21.7422 19.276 21.4773 18.7574ZM12.171 18.4626C12.7714 15.6021 14.6966 13.2286 17.2761 12.0123C17.3994 12.1766 19.1099 14.4946 20.7109 17.335C16.3163 18.5009 12.4961 18.4656 12.1799 18.4627L12.171 18.4626Z" fill="#3C3C3C"/>
</svg>
