<svg width="535" height="314" viewBox="0 0 535 314" fill="none" xmlns="http://www.w3.org/2000/svg">
<g clip-path="url(#clip0)">
<path d="M534.809 313.746C534.809 278.63 527.892 243.858 514.454 211.415C501.016 178.972 481.319 149.494 456.488 124.663C431.657 99.8322 402.179 80.1353 369.736 66.697C337.293 53.2587 302.52 46.342 267.404 46.342C232.288 46.342 197.516 53.2587 165.073 66.697C132.63 80.1353 103.152 99.8322 78.3209 124.663C53.4901 149.494 33.7933 178.972 20.3549 211.415C6.91661 243.858 -3.06994e-06 278.63 0 313.746L534.809 313.746Z" fill="#FFF500"/>
<mask id="path-2-inside-1" fill="white">
<path d="M251.806 242.58C251.806 241.541 251.393 240.544 250.658 239.81C249.923 239.075 248.927 238.662 247.888 238.662C246.849 238.662 245.852 239.075 245.117 239.81C244.383 240.544 243.97 241.541 243.97 242.58L247.888 242.58H251.806Z"/>
</mask>
<path d="M251.806 242.58C251.806 241.541 251.393 240.544 250.658 239.81C249.923 239.075 248.927 238.662 247.888 238.662C246.849 238.662 245.852 239.075 245.117 239.81C244.383 240.544 243.97 241.541 243.97 242.58L247.888 242.58H251.806Z" stroke="#3C3C3C" stroke-width="4" mask="url(#path-2-inside-1)"/>
<path d="M19.4307 215.193L417.188 217.76" stroke="#3C3C3C" stroke-width="2"/>
<rect x="33.4326" y="1" width="290.475" height="195.417" rx="15" stroke="#3C3C3C" stroke-width="2"/>
<path d="M117.845 114.725C120.411 105.893 128.502 99.8184 137.699 99.8184H202.425C206.573 99.8184 209.56 103.798 208.403 107.78L168.301 245.797H79.7606L117.845 114.725Z" stroke="#3C3C3C" stroke-width="2"/>
<path d="M168.248 245.498L174.21 225.804L207.264 225.804C209.126 225.804 209.646 228.359 207.931 229.087L169.251 245.498L168.248 245.498Z" stroke="#3C3C3C" stroke-width="2"/>
<path d="M96.5438 191.119H183.098L167.529 244.64H81.1865L96.5438 191.119Z" fill="#FFF500"/>
<mask id="path-8-inside-2" fill="white">
<path d="M272.796 244.304C272.796 239.365 270.296 234.627 265.847 231.135C261.398 227.642 255.364 225.68 249.072 225.68C242.78 225.68 236.745 227.642 232.296 231.135C227.847 234.627 225.348 239.365 225.348 244.304L249.072 244.304H272.796Z"/>
</mask>
<path d="M272.796 244.304C272.796 239.365 270.296 234.627 265.847 231.135C261.398 227.642 255.364 225.68 249.072 225.68C242.78 225.68 236.745 227.642 232.296 231.135C227.847 234.627 225.348 239.365 225.348 244.304L249.072 244.304H272.796Z" stroke="#3C3C3C" stroke-width="4" mask="url(#path-8-inside-2)"/>
<path d="M249.072 243.436L198.078 269.547C190.037 273.665 181.133 275.812 172.099 275.812H126.692C123.037 275.812 122.558 270.516 126.154 269.861L137.063 267.873C140.632 267.223 140.197 261.975 136.569 261.922L43.5845 260.56C40.4269 260.514 39.475 256.248 42.3134 254.864L64.4793 244.053C65.2806 243.662 65.8666 242.936 66.0783 242.07L80.4539 183.288C80.6188 182.613 81.0126 182.017 81.5681 181.6L83.8715 179.873" stroke="#3C3C3C" stroke-width="2"/>
<circle cx="83.2102" cy="180.553" r="1.77173" stroke="#3C3C3C" stroke-width="2"/>
<path d="M363.236 175.283H433.901L422.607 214.409L432.943 243.866C438.418 259.473 426.836 275.812 410.296 275.812H386.767C370.401 275.812 358.835 259.792 363.986 244.258L373.884 214.409L363.236 175.283Z" fill="#3C3C3C"/>
<path d="M402.514 187.95L413.549 127.833" stroke="#3C3C3C" stroke-width="2"/>
<path d="M423.205 78.6206C423.306 78.7669 423.419 78.9318 423.543 79.1143C424.118 79.9613 424.928 81.1871 425.863 82.6973C427.734 85.7205 430.101 89.8693 432.094 94.3892C434.092 98.9197 435.688 103.765 436.068 108.195C436.448 112.621 435.606 116.497 432.895 119.29C423.135 129.348 406.781 129.348 397.021 119.29C393.956 116.131 393.847 112.158 395.661 107.693C397.488 103.195 401.206 98.402 405.433 93.9714C409.644 89.5566 414.291 85.5722 417.892 82.687C419.69 81.2458 421.225 80.0819 422.308 79.2792C422.656 79.0215 422.957 78.801 423.205 78.6206Z" stroke="#3C3C3C" stroke-width="2"/>
<path d="M407.419 78.6206C407.318 78.7669 407.205 78.9318 407.081 79.1143C406.506 79.9613 405.697 81.1871 404.762 82.6973C402.89 85.7205 400.524 89.8693 398.53 94.3892C396.533 98.9197 394.936 103.765 394.556 108.195C394.176 112.621 395.019 116.497 397.729 119.29C407.489 129.348 423.843 129.348 433.603 119.29C436.668 116.131 436.777 112.158 434.964 107.693C433.136 103.195 429.418 98.402 425.192 93.9714C420.98 89.5566 416.334 85.5722 412.733 82.687C410.934 81.2458 409.4 80.0819 408.316 79.2792C407.969 79.0215 407.667 78.801 407.419 78.6206Z" stroke="#3C3C3C" stroke-width="2"/>
</g>
<defs>
<clipPath id="clip0">
</clipPath>
</defs>
</svg>
