<svg width="1440" height="386" viewBox="0 0 1440 386" fill="none" xmlns="http://www.w3.org/2000/svg">
<rect width="1440" height="385.074" fill="#F8F8F8"/>
<path d="M1333 385.073C1333 349.957 1326.08 315.185 1312.65 282.742C1299.21 250.299 1279.51 220.82 1254.68 195.99C1229.85 171.159 1200.37 151.462 1167.93 138.024C1135.48 124.585 1100.71 117.669 1065.6 117.669C1030.48 117.669 995.708 124.585 963.265 138.024C930.822 151.462 901.343 171.159 876.512 195.99C851.682 220.82 831.985 250.299 818.546 282.742C805.108 315.185 798.191 349.957 798.191 385.073L1333 385.073Z" fill="#FFF500"/>
<mask id="path-3-inside-1" fill="white">
<path d="M1050 313.907C1050 312.868 1049.58 311.871 1048.85 311.136C1048.11 310.402 1047.12 309.989 1046.08 309.989C1045.04 309.989 1044.04 310.402 1043.31 311.136C1042.57 311.871 1042.16 312.868 1042.16 313.907L1046.08 313.907H1050Z"/>
</mask>
<path d="M1050 313.907C1050 312.868 1049.58 311.871 1048.85 311.136C1048.11 310.402 1047.12 309.989 1046.08 309.989C1045.04 309.989 1044.04 310.402 1043.31 311.136C1042.57 311.871 1042.16 312.868 1042.16 313.907L1046.08 313.907H1050Z" stroke="#3C3C3C" stroke-width="4" mask="url(#path-3-inside-1)"/>
<path d="M817.622 286.52L1215.38 289.086" stroke="#3C3C3C" stroke-width="2"/>
<rect x="831.624" y="72.3267" width="290.475" height="195.417" rx="15" stroke="#3C3C3C" stroke-width="2"/>
<path d="M935.89 171.145H1000.62C1004.76 171.145 1007.75 175.124 1006.59 179.107L966.493 317.123H877.952L916.036 186.051C918.602 177.22 926.693 171.145 935.89 171.145Z" stroke="#3C3C3C" stroke-width="2"/>
<path d="M966.439 316.824L972.402 297.13L1005.46 297.13C1007.32 297.13 1007.84 299.686 1006.12 300.413L967.443 316.824L966.439 316.824Z" stroke="#3C3C3C" stroke-width="2"/>
<path d="M894.735 262.445H981.29L965.72 315.966H879.378L894.735 262.445Z" fill="#FFF500"/>
<mask id="path-9-inside-2" fill="white">
<path d="M1070.99 315.631C1070.99 310.691 1068.49 305.954 1064.04 302.461C1059.59 298.969 1053.55 297.006 1047.26 297.006C1040.97 297.006 1034.94 298.969 1030.49 302.461C1026.04 305.954 1023.54 310.691 1023.54 315.631L1047.26 315.631H1070.99Z"/>
</mask>
<path d="M1070.99 315.631C1070.99 310.691 1068.49 305.954 1064.04 302.461C1059.59 298.969 1053.55 297.006 1047.26 297.006C1040.97 297.006 1034.94 298.969 1030.49 302.461C1026.04 305.954 1023.54 310.691 1023.54 315.631L1047.26 315.631H1070.99Z" stroke="#3C3C3C" stroke-width="4" mask="url(#path-9-inside-2)"/>
<path d="M1047.26 314.763L996.27 340.874C988.229 344.991 979.324 347.139 970.291 347.139H924.883C921.228 347.139 920.75 341.842 924.345 341.187L935.254 339.2C938.824 338.549 938.388 333.302 934.76 333.248L841.776 331.886C838.618 331.84 837.666 327.575 840.505 326.19L862.671 315.38C863.472 314.989 864.058 314.262 864.27 313.396L878.645 254.614C878.81 253.94 879.204 253.344 879.76 252.927L882.063 251.2" stroke="#3C3C3C" stroke-width="2"/>
<circle cx="881.402" cy="251.88" r="1.77173" stroke="#3C3C3C" stroke-width="2"/>
</svg>
