<svg width="1268" height="1075" viewBox="0 0 1268 1075" fill="none" xmlns="http://www.w3.org/2000/svg">
<circle cx="374.888" cy="647.246" r="374.888" fill="#FFF500"/>
<path d="M737.344 514.511C738.888 509.621 738.933 506.887 737.344 501.998H734.346H731.348V488.182C730.578 483.627 728.704 482.753 724.049 482.707V478.797L726.916 477.233C727.495 475.299 727.41 474.214 726.916 472.28L724.049 469.934C723.535 467.993 723.577 466.921 724.049 464.981L722.224 461.331L720.398 464.981C720.871 466.921 720.912 467.993 720.398 469.934L717.531 472.28C717.038 474.214 716.952 475.299 717.531 477.233L720.398 478.797V482.707C715.743 482.753 713.869 483.627 713.099 488.182V501.998H710.102H707.104C705.515 506.887 705.559 509.621 707.104 514.511H710.102H713.099V526.503H715.755V539.798L717.934 689.694L715.755 693.605V699.079L717.934 701.686L715.755 841.151L709.58 844.551V852.201L713.212 855.176V874.3L705.948 945.272L702.316 949.947L705.948 953.2V960.146L695.051 966.639C694.57 970.184 694.477 972.176 695.051 975.72L713.212 985.527H731.235L749.396 975.72C749.97 972.176 749.877 970.184 749.396 966.639L738.499 960.146V953.2L742.132 949.947L738.499 945.272L731.235 874.3V855.176L734.867 852.201V844.551L728.692 841.151L726.513 701.686L728.692 699.079V693.605L726.513 689.694L728.692 539.798V526.503H731.348V514.511H734.346H737.344Z" fill="#3C3C3C"/>
<path fill-rule="evenodd" clip-rule="evenodd" d="M781.921 367.744V375.303H779.575V379.214C777.636 382.193 776.643 383.857 775.665 386.774C772.095 390.527 769.947 392.219 765.498 393.552C763.926 399.747 761.828 402.685 757.417 407.629L751.421 412.321C755.881 411.245 760.01 410.376 764.023 409.694C768.294 408.968 772.433 408.454 776.695 408.129C780.136 407.866 783.657 407.726 787.393 407.695C791.419 407.662 795.694 407.757 800.387 407.963C804.517 408.145 808.972 408.412 813.865 408.756L806.304 405.468L800.387 393.552L789.375 388.374L783.786 379.214H785.43V375.303H783.786L781.921 367.744ZM800.387 461.331H793.311H783.786H777.793H771.801H765.498L761.588 466.805C769.811 469.14 772.317 472.284 773.579 480.622C775.376 480.848 776.367 481.125 778.011 482.707V487.139L779.575 488.182C782.082 517.301 757.889 534.29 737.344 514.511H734.346L740.863 524.137C740.863 524.137 742.208 528.912 740.863 531.417C740.734 531.656 740.629 531.911 740.527 532.16C740.221 532.906 739.94 533.59 739.124 533.589C738.153 533.589 737.344 531.851 737.344 531.851L736.082 533.589C736.082 533.589 737.565 536.072 739.124 536.197C740.754 536.327 741.602 535.14 742.542 533.824L742.545 533.82L742.558 533.801C742.608 533.731 742.659 533.66 742.71 533.589C744.592 530.971 742.71 525.332 742.71 525.332C770.632 530.439 784.104 514.511 784.104 487.139C789.597 476.069 792.662 471.147 798.086 466.805H803.51L800.387 461.331ZM734.346 501.998H737.344C737.344 501.998 737.894 499.536 739.124 498.823C740.336 498.121 741.452 498.208 742.71 498.823C744.298 499.6 744.991 502.734 744.991 502.734C744.991 502.734 747.449 499.915 747.164 497.845C746.729 494.685 743.149 493.466 739.994 493.934C736.19 494.498 734.346 501.998 734.346 501.998Z" fill="#3C3C3C"/>
<path fill-rule="evenodd" clip-rule="evenodd" d="M662.526 367.744V375.303H664.872V379.214C666.811 382.193 667.804 383.857 668.782 386.774C672.353 390.527 674.5 392.219 678.949 393.552C680.521 399.747 682.619 402.685 687.03 407.629L693.027 412.321C688.567 411.245 684.437 410.376 680.425 409.694C676.153 408.968 672.014 408.454 667.752 408.129C664.312 407.866 660.79 407.726 657.054 407.695C653.029 407.662 648.754 407.757 644.06 407.963C639.93 408.145 635.475 408.412 630.582 408.756L638.143 405.468L644.06 393.552L655.073 388.374L660.661 379.214H659.017V375.303H660.661L662.526 367.744ZM644.06 461.331L640.937 466.805H646.361C651.785 471.147 654.85 476.069 660.344 487.139C660.344 514.511 673.816 530.439 701.738 525.332C701.738 525.332 699.855 530.971 701.738 533.589C701.794 533.668 701.85 533.746 701.906 533.824C702.846 535.14 703.693 536.327 705.323 536.197C706.883 536.072 708.365 533.589 708.365 533.589L707.104 531.851C707.104 531.851 706.295 533.589 705.323 533.589C704.508 533.59 704.227 532.906 703.92 532.16C703.818 531.911 703.713 531.656 703.584 531.417C702.239 528.912 703.584 524.137 703.584 524.137L710.102 514.511H707.104C686.558 534.29 662.366 517.301 664.872 488.182L666.436 487.139V482.707C668.08 481.125 669.072 480.848 670.868 480.622C672.13 472.284 674.636 469.14 682.86 466.805L678.949 461.331H672.647H666.654H660.661H651.136H644.06ZM710.102 501.998H707.104C707.104 501.998 706.553 499.536 705.323 498.823C704.111 498.121 702.995 498.208 701.738 498.823C700.149 499.6 699.456 502.734 699.456 502.734C699.456 502.734 696.998 499.915 697.283 497.845C697.718 494.685 701.298 493.466 704.454 493.934C708.257 494.498 710.102 501.998 710.102 501.998Z" fill="#3C3C3C"/>
<path d="M751.421 412.321L757.417 407.629C761.828 402.685 763.926 399.747 765.498 393.552C769.947 392.219 772.095 390.527 775.665 386.774C776.643 383.857 777.636 382.193 779.575 379.214V375.303H781.921V367.744L783.786 375.303H785.43V379.214H783.786L789.375 388.374L800.387 393.552L806.304 405.468L813.865 408.756M751.421 412.321C754.702 412.863 755.504 414.173 755.853 417.535V425.617L765.498 461.331M751.421 412.321C755.881 411.245 760.01 410.376 764.023 409.694M765.498 461.331L761.588 466.805C769.811 469.14 772.317 472.284 773.579 480.622C775.376 480.848 776.367 481.125 778.011 482.707V487.139L779.575 488.182C782.082 517.301 757.889 534.29 737.344 514.511M765.498 461.331H771.801M737.344 514.511C738.888 509.621 738.933 506.887 737.344 501.998M737.344 514.511H734.346M737.344 501.998H734.346M737.344 501.998C737.344 501.998 737.894 499.536 739.124 498.823C740.336 498.121 741.452 498.208 742.71 498.823C744.298 499.6 744.991 502.734 744.991 502.734C744.991 502.734 747.449 499.915 747.164 497.845C746.729 494.685 743.149 493.466 739.994 493.934C736.19 494.498 734.346 501.998 734.346 501.998M734.346 501.998H731.348V488.182C730.578 483.627 728.704 482.753 724.049 482.707V478.797L726.916 477.233C727.495 475.299 727.41 474.214 726.916 472.28L724.049 469.934C723.535 467.993 723.577 466.921 724.049 464.981L722.224 461.331L720.398 464.981C720.871 466.921 720.912 467.993 720.398 469.934L717.531 472.28C717.038 474.214 716.952 475.299 717.531 477.233L720.398 478.797V482.707C715.743 482.753 713.869 483.627 713.099 488.182V501.998H710.102M734.346 514.511H731.348V526.503H728.692V539.798L726.513 689.694L728.692 693.605V699.079L726.513 701.686L728.692 841.151L734.867 844.551V852.201L731.235 855.176V874.3L738.499 945.272L742.132 949.947L738.499 953.2V960.146L749.396 966.639C749.877 970.184 749.97 972.176 749.396 975.72L731.235 985.527H713.212L695.051 975.72C694.477 972.176 694.57 970.184 695.051 966.639L705.948 960.146V953.2L702.316 949.947L705.948 945.272L713.212 874.3V855.176L709.58 852.201V844.551L715.755 841.151L717.934 701.686L715.755 699.079V693.605L717.934 689.694L715.755 539.798V526.503H713.099V514.511H710.102M734.346 514.511L740.863 524.137C740.863 524.137 742.208 528.912 740.863 531.417C740.734 531.656 740.629 531.911 740.527 532.16C740.221 532.906 739.94 533.59 739.124 533.589C738.153 533.589 737.344 531.851 737.344 531.851L736.082 533.589C736.082 533.589 737.565 536.072 739.124 536.197C740.754 536.327 741.602 535.14 742.542 533.824M800.387 461.331L803.51 466.805H798.086C792.662 471.147 789.597 476.069 784.104 487.139C784.104 514.511 770.632 530.439 742.71 525.332C742.71 525.332 744.592 530.971 742.71 533.589C742.659 533.66 742.608 533.731 742.558 533.801M800.387 461.331C800.387 461.331 803.51 430.123 808.441 414.015C809.305 411.194 813.865 408.756 813.865 408.756M800.387 461.331H793.311M813.865 408.756C808.972 408.412 804.517 408.145 800.387 407.963M800.387 407.963L793.311 461.331M800.387 407.963C795.694 407.757 791.419 407.662 787.393 407.695M793.311 461.331H783.786M764.023 409.694L771.801 461.331M764.023 409.694C768.294 408.968 772.433 408.454 776.695 408.129M771.801 461.331H777.793M787.393 407.695L783.786 461.331M787.393 407.695C783.657 407.726 780.136 407.866 776.695 408.129M783.786 461.331H777.793M777.793 461.331L776.695 408.129M693.027 412.321L687.03 407.629C682.619 402.685 680.521 399.747 678.949 393.552C674.5 392.219 672.353 390.527 668.782 386.774C667.804 383.857 666.811 382.193 664.872 379.214V375.303H662.526V367.744L660.661 375.303H659.017V379.214H660.661L655.073 388.374L644.06 393.552L638.143 405.468L630.582 408.756M693.027 412.321C689.745 412.863 688.944 414.173 688.595 417.535V425.617L678.949 461.331M693.027 412.321C688.567 411.245 684.437 410.376 680.425 409.694M678.949 461.331L682.86 466.805C674.636 469.14 672.13 472.284 670.868 480.622C669.072 480.848 668.08 481.125 666.436 482.707V487.139L664.872 488.182C662.366 517.301 686.558 534.29 707.104 514.511M678.949 461.331H672.647M707.104 514.511C705.559 509.621 705.515 506.887 707.104 501.998M707.104 514.511H710.102M707.104 501.998H710.102M707.104 501.998C707.104 501.998 706.553 499.536 705.323 498.823C704.111 498.121 702.995 498.208 701.738 498.823C700.149 499.6 699.456 502.734 699.456 502.734C699.456 502.734 696.998 499.915 697.283 497.845C697.718 494.685 701.298 493.466 704.454 493.934C708.257 494.498 710.102 501.998 710.102 501.998M710.102 514.511L703.584 524.137C703.584 524.137 702.239 528.912 703.584 531.417C703.713 531.656 703.818 531.911 703.92 532.16C704.227 532.906 704.508 533.59 705.323 533.589C706.295 533.589 707.104 531.851 707.104 531.851L708.365 533.589C708.365 533.589 706.883 536.072 705.323 536.197C703.693 536.327 702.846 535.14 701.906 533.824C701.85 533.746 701.794 533.668 701.738 533.589C699.855 530.971 701.738 525.332 701.738 525.332C673.816 530.439 660.344 514.511 660.344 487.139C654.85 476.069 651.785 471.147 646.361 466.805H640.937L644.06 461.331M644.06 461.331C644.06 461.331 640.937 430.123 636.006 414.015C635.142 411.194 630.582 408.756 630.582 408.756M644.06 461.331H651.136M630.582 408.756C635.475 408.412 639.93 408.145 644.06 407.963M644.06 407.963L651.136 461.331M644.06 407.963C648.754 407.757 653.029 407.662 657.054 407.695M651.136 461.331H660.661M680.425 409.694L672.647 461.331M680.425 409.694C676.153 408.968 672.014 408.454 667.752 408.129M672.647 461.331H666.654M657.054 407.695L660.661 461.331M657.054 407.695C660.79 407.726 664.312 407.866 667.752 408.129M660.661 461.331H666.654M666.654 461.331L667.752 408.129M742.542 533.824L742.545 533.82M742.542 533.824C742.543 533.823 742.544 533.821 742.545 533.82M742.545 533.82L742.558 533.801M742.545 533.82C742.549 533.814 742.554 533.808 742.558 533.801" stroke="#3C3C3C" stroke-width="2"/>
<circle cx="519.698" cy="435.03" r="6.69394" stroke="#3C3C3C" stroke-width="2"/>
<circle cx="500.958" cy="453.771" r="3.34171" stroke="#3C3C3C" stroke-width="2"/>
<circle cx="503.18" cy="410.401" r="2.75718" stroke="#3C3C3C" stroke-width="2"/>
<circle cx="541.531" cy="408.522" r="4.63572" stroke="#3C3C3C" stroke-width="2"/>
<circle r="6.69394" transform="matrix(-1 0 0 1 563.364 505.221)" stroke="#3C3C3C" stroke-width="2"/>
<circle r="6.69394" transform="matrix(-1 0 0 1 745.002 371.68)" stroke="#3C3C3C" stroke-width="2"/>
<circle r="6.69394" transform="matrix(-1 0 0 1 771.69 331.36)" stroke="#3C3C3C" stroke-width="2"/>
<circle r="6.69394" transform="matrix(-1 0 0 1 535.895 363.986)" stroke="#3C3C3C" stroke-width="2"/>
<circle r="6.69394" transform="matrix(-1 0 0 1 714.431 440.666)" stroke="#3C3C3C" stroke-width="2"/>
<circle r="6.69394" transform="matrix(-1 0 0 1 340.635 367.744)" stroke="#3C3C3C" stroke-width="2"/>
<circle r="3.34171" transform="matrix(-1 0 0 1 582.104 523.962)" stroke="#3C3C3C" stroke-width="2"/>
<circle r="3.34171" transform="matrix(-1 0 0 1 682.316 483.055)" stroke="#3C3C3C" stroke-width="2"/>
<circle r="2.75718" transform="matrix(-1 0 0 1 579.883 480.592)" stroke="#3C3C3C" stroke-width="2"/>
<circle r="4.63572" transform="matrix(-1 0 0 1 541.531 478.713)" stroke="#3C3C3C" stroke-width="2"/>
<circle r="4.63572" transform="matrix(-1 0 0 1 613.027 427.336)" stroke="#3C3C3C" stroke-width="2"/>
<circle cx="501.616" cy="523.772" r="6.69394" transform="rotate(-180 501.616 523.772)" stroke="#3C3C3C" stroke-width="2"/>
<circle cx="415.708" cy="419.643" r="6.69394" transform="rotate(-180 415.708 419.643)" stroke="#3C3C3C" stroke-width="2"/>
<circle cx="706.737" cy="375.438" r="6.69394" transform="rotate(-180 706.737 375.438)" stroke="#3C3C3C" stroke-width="2"/>
<circle cx="520.356" cy="505.032" r="3.34171" transform="rotate(-180 520.356 505.032)" stroke="#3C3C3C" stroke-width="2"/>
<circle cx="518.135" cy="548.402" r="2.75718" transform="rotate(-180 518.135 548.402)" stroke="#3C3C3C" stroke-width="2"/>
<circle cx="665.886" cy="574.158" r="2.75718" transform="rotate(-180 665.886 574.158)" stroke="#3C3C3C" stroke-width="2"/>
<circle cx="506.937" cy="731.997" r="2.75718" transform="rotate(-180 506.937 731.997)" stroke="#3C3C3C" stroke-width="2"/>
<circle cx="499.423" cy="709.594" r="2.75718" transform="rotate(-180 499.423 709.594)" stroke="#3C3C3C" stroke-width="2"/>
<circle cx="636.568" cy="720.227" r="2.75718" transform="rotate(-180 636.568 720.227)" stroke="#3C3C3C" stroke-width="2"/>
<circle cx="506.937" cy="628.279" r="2.75718" transform="rotate(-180 506.937 628.279)" stroke="#3C3C3C" stroke-width="2"/>
<circle cx="479.783" cy="550.281" r="4.63572" transform="rotate(-180 479.783 550.281)" stroke="#3C3C3C" stroke-width="2"/>
<circle cx="490.981" cy="793.213" r="4.63572" transform="rotate(-180 490.981 793.213)" stroke="#3C3C3C" stroke-width="2"/>
<circle cx="555.67" cy="590.753" r="4.63572" transform="rotate(-180 555.67 590.753)" stroke="#3C3C3C" stroke-width="2"/>
<circle r="10.3744" transform="matrix(1 0 0 -1 637.367 612.039)" stroke="#3C3C3C" stroke-width="2"/>
<circle r="10.3744" transform="matrix(1 0 0 -1 586.446 356.369)" stroke="#3C3C3C" stroke-width="2"/>
<circle r="10.3744" transform="matrix(1 0 0 -1 473.971 356.369)" stroke="#3C3C3C" stroke-width="2"/>
<circle r="10.3744" transform="matrix(1 0 0 -1 321.567 297.485)" stroke="#3C3C3C" stroke-width="2"/>
<circle r="10.3744" transform="matrix(1 0 0 -1 801.333 360.306)" stroke="#3C3C3C" stroke-width="2"/>
<circle r="10.3744" transform="matrix(1 0 0 -1 553.206 663.248)" stroke="#3C3C3C" stroke-width="2"/>
<circle r="5.41861" transform="matrix(1 0 0 -1 609.663 584.334)" stroke="#3C3C3C" stroke-width="2"/>
<circle r="5.41861" transform="matrix(1 0 0 -1 742.803 612.039)" stroke="#3C3C3C" stroke-width="2"/>
<circle r="4.55447" transform="matrix(1 0 0 -1 612.947 648.451)" stroke="#3C3C3C" stroke-width="2"/>
<circle r="4.55447" transform="matrix(1 0 0 -1 577.762 787.435)" stroke="#3C3C3C" stroke-width="2"/>
<circle r="7.33163" transform="matrix(1 0 0 -1 669.643 651.228)" stroke="#3C3C3C" stroke-width="2"/>
<path d="M337.495 281.915C353.045 282.956 368.084 279.884 381.932 273.467C388.578 275.495 395.549 276.798 402.766 277.281C420.832 278.49 438.058 274.401 453.01 266.311C463.892 304.204 496.733 332.9 537.354 335.618C555.878 336.858 573.52 332.527 588.732 324.025C606.628 341.205 630.195 352.368 656.575 354.133C703.824 357.295 746.146 329.375 764.675 287.438C766.647 287.68 768.637 287.868 770.642 288.002C831.504 292.075 884.192 244.575 888.381 181.975C892.57 119.375 846.68 65.2786 785.818 61.2061C738.57 58.0444 696.247 85.9642 677.718 127.901C675.746 127.66 673.757 127.471 671.751 127.337C665.087 126.891 658.521 127.064 652.105 127.806C642.436 87.9659 608.738 57.348 566.712 54.5359C527.001 51.8786 491.352 74.8173 474.982 109.579C467.228 101.913 458.184 95.5845 448.177 90.9843C433.274 45.239 398.488 12.0902 355.741 9.22984C295.339 5.18802 242.633 63.1999 237.609 138.278C232.585 213.356 277.092 277.873 337.495 281.915Z" stroke="black" stroke-width="2"/>
<path d="M318.2 822.36H449.747L1060.97 822.36C1085.78 822.36 1095.38 854.659 1074.59 868.208C1060.59 877.326 1059.34 897.354 1072.08 908.147L1119.5 948.3C1170.12 991.161 1139.81 1073.86 1073.49 1073.86L314.814 1073.86C304.522 1073.86 296.179 1065.52 296.179 1055.23C296.179 1044.94 304.522 1036.59 314.814 1036.59H437.945C444.463 1036.59 449.747 1031.31 449.747 1024.79C449.747 1018.27 444.463 1012.99 437.945 1012.99H222.264C210.258 1012.99 200.524 1003.26 200.524 991.25C200.524 979.243 210.258 969.51 222.264 969.51H378.17C387.775 969.51 395.562 961.723 395.562 952.118C395.562 942.513 387.775 934.726 378.17 934.726H280.651C270.017 934.726 261.396 926.105 261.396 915.471C261.396 904.836 270.017 896.216 280.651 896.216H329.721C337.954 896.216 344.629 889.541 344.629 881.308C344.629 873.075 337.954 866.401 329.721 866.401H318.2C306.038 866.401 296.179 856.542 296.179 844.38C296.179 832.219 306.038 822.36 318.2 822.36Z" stroke="black" stroke-width="2"/>
<ellipse cx="761.467" cy="976.054" rx="4.66617" ry="1.63941" fill="#3B3B3B"/>
<ellipse cx="752.135" cy="981.022" rx="4.66617" ry="1.63941" fill="#3B3B3B"/>
<ellipse cx="766.133" cy="982.661" rx="4.66617" ry="1.63941" fill="#3B3B3B"/>
<ellipse cx="742.803" cy="987.166" rx="4.66617" ry="1.63941" fill="#3B3B3B"/>
<ellipse cx="757.889" cy="987.166" rx="4.66617" ry="1.63941" fill="#3B3B3B"/>
<ellipse cx="729.493" cy="990.445" rx="4.66617" ry="1.63941" fill="#3B3B3B"/>
<ellipse cx="745.11" cy="993.311" rx="4.66617" ry="1.63941" fill="#3B3B3B"/>
<ellipse cx="729.493" cy="996.59" rx="4.66617" ry="1.63941" fill="#3B3B3B"/>
<ellipse cx="713.877" cy="993.311" rx="4.66617" ry="1.63941" fill="#3B3B3B"/>
<ellipse cx="704.545" cy="988.806" rx="4.66617" ry="1.63941" fill="#3B3B3B"/>
<ellipse cx="696.634" cy="983.887" rx="4.66617" ry="1.63941" fill="#3B3B3B"/>
<ellipse cx="691.968" cy="990.032" rx="4.66617" ry="1.63941" fill="#3B3B3B"/>
<ellipse cx="701.3" cy="996.59" rx="4.66617" ry="1.63941" fill="#3B3B3B"/>
<ellipse cx="717.558" cy="999.869" rx="4.66617" ry="1.63941" fill="#3B3B3B"/>
</svg>
