<svg width="116" height="94" viewBox="0 0 116 94" fill="none" xmlns="http://www.w3.org/2000/svg">
<rect width="116" height="94" fill="#3C3C3C"/>
<path d="M22.5093 16.4707H102.152V78.8771H22.5093V16.4707Z" fill="#3C3C3C" stroke="#CCCCCC" stroke-width="2"/>
<path d="M31.3667 68.5511L52.6026 28.0514L73.8384 68.5511H31.3667Z" fill="#3C3C3C" stroke="#CCCCCC" stroke-width="2"/>
<path d="M69.2199 68.5426L79.0332 49.8272L88.8465 68.5426H69.2199Z" fill="#3C3C3C" stroke="#CCCCCC" stroke-width="2"/>
<circle cx="79.1448" cy="34.8219" r="6.68544" fill="#3C3C3C" stroke="#CCCCCC" stroke-width="2"/>
<path d="M11.9966 16.3508L19.6463 9.61619L24.643 15.2917L16.9933 22.0264L11.9966 16.3508Z" fill="#3C3C3C"/>
<path d="M54.3974 56.5519L51.1631 55.1941L53.3886 53.2348L54.3974 56.5519Z" fill="#3C3C3C"/>
<path d="M50.9297 45.1501L43.28 51.8847L16.9933 22.0264L24.643 15.2917L50.9297 45.1501Z" fill="#3C3C3C"/>
<path d="M43.28 51.8847L50.9297 45.1501L53.3886 53.2348L51.1631 55.1941L43.28 51.8847Z" fill="#3C3C3C"/>
<path d="M43.28 51.8847L50.9297 45.1501M43.28 51.8847L16.9933 22.0264M43.28 51.8847L51.1631 55.1941M50.9297 45.1501L24.643 15.2917M50.9297 45.1501L53.3886 53.2348M16.9933 22.0264L11.9966 16.3508L19.6463 9.61619L24.643 15.2917M16.9933 22.0264L24.643 15.2917M51.1631 55.1941L54.3974 56.5519L53.3886 53.2348M51.1631 55.1941L53.3886 53.2348" stroke="#CCCCCC" stroke-width="2"/>
<path d="M54.3974 56.5519L51.1631 55.1941L53.3886 53.2348L54.3974 56.5519Z" fill="#3C3C3C"/>
<path d="M43.28 51.8847L50.9297 45.1501M43.28 51.8847L16.9933 22.0264M43.28 51.8847L51.1631 55.1941M50.9297 45.1501L24.643 15.2917M50.9297 45.1501L53.3886 53.2348M16.9933 22.0264L11.9966 16.3508L19.6463 9.61619L24.643 15.2917M16.9933 22.0264L24.643 15.2917M51.1631 55.1941L54.3974 56.5519L53.3886 53.2348M51.1631 55.1941L53.3886 53.2348" stroke="#CCCCCC" stroke-width="2"/>
</svg>
