<svg width="117" height="95" viewBox="0 0 117 95" fill="none" xmlns="http://www.w3.org/2000/svg">
<path d="M22.6539 16.6108H102.297V79.0173H22.6539V16.6108Z" stroke="#3C3C3C" stroke-width="2"/>
<path d="M31.5113 68.6912L52.7472 28.1915L73.983 68.6912H31.5113Z" fill="#FDFDFD" stroke="#3C3C3C" stroke-width="2"/>
<path d="M69.3645 68.6827L79.1778 49.9674L88.9911 68.6827H69.3645Z" fill="#FDFDFD" stroke="#3C3C3C" stroke-width="2"/>
<circle cx="79.2894" cy="34.9621" r="6.68544" stroke="#3C3C3C" stroke-width="2"/>
<path d="M12.1412 16.491L19.7909 9.75636L24.7876 15.4319L17.1379 22.1666L12.1412 16.491Z" fill="#FDFDFD"/>
<path d="M54.542 56.6921L51.3077 55.3343L53.5331 53.375L54.542 56.6921Z" fill="#FDFDFD"/>
<path d="M51.0743 45.2902L43.4246 52.0249L17.1379 22.1666L24.7876 15.4319L51.0743 45.2902Z" fill="#FDFDFD"/>
<path d="M43.4246 52.0249L51.0743 45.2902L53.5331 53.375L51.3077 55.3343L43.4246 52.0249Z" fill="#FDFDFD"/>
<path d="M43.4246 52.0249L51.0743 45.2902M43.4246 52.0249L17.1379 22.1666M43.4246 52.0249L51.3077 55.3343M51.0743 45.2902L24.7876 15.4319M51.0743 45.2902L53.5331 53.375M17.1379 22.1666L12.1412 16.491L19.7909 9.75636L24.7876 15.4319M17.1379 22.1666L24.7876 15.4319M51.3077 55.3343L54.542 56.6921L53.5331 53.375M51.3077 55.3343L53.5331 53.375" stroke="#FDFDFD" stroke-width="2"/>
<path d="M54.542 56.6921L51.3077 55.3343L53.5331 53.375L54.542 56.6921Z" fill="#3C3C3C"/>
<path d="M43.4246 52.0249L51.0743 45.2902M43.4246 52.0249L17.1379 22.1666M43.4246 52.0249L51.3077 55.3343M51.0743 45.2902L24.7876 15.4319M51.0743 45.2902L53.5331 53.375M17.1379 22.1666L12.1412 16.491L19.7909 9.75636L24.7876 15.4319M17.1379 22.1666L24.7876 15.4319M51.3077 55.3343L54.542 56.6921L53.5331 53.375M51.3077 55.3343L53.5331 53.375" stroke="#3C3C3C" stroke-width="2"/>
</svg>
