<svg width="164" height="12" viewBox="0 0 164 12" fill="none" xmlns="http://www.w3.org/2000/svg">
<path d="M0.136084 0.818391H1.94807V5.13263H2.03435L6.24793 0.818391H8.69266L3.93262 5.52091L9.00904 11H6.46364L2.04873 5.99548H1.94807V11H0.136084V0.818391ZM16.1501 0.818391H17.7176L22.1038 11H20.0329L19.0838 8.67031H14.6689L13.7485 11H11.7208L16.1501 0.818391ZM18.451 7.11718L16.8835 2.97551L15.2873 7.11718H18.451ZM26.8765 2.4578H23.7559V0.818391H31.8091V2.4578H28.6885V11H26.8765V2.4578ZM35.9252 0.818391H37.7372V4.87378H42.4972V0.818391H44.3092V11H42.4972V6.51319H37.7372V11H35.9252V0.818391ZM49.4606 0.818391H52.9982C53.4872 0.818391 53.957 0.866327 54.4076 0.962199C54.8677 1.04848 55.2752 1.20188 55.6299 1.42238C55.9846 1.64289 56.2675 1.94009 56.4784 2.31399C56.6893 2.6879 56.7948 3.16246 56.7948 3.73769C56.7948 4.47591 56.5886 5.09428 56.1764 5.59282C55.7737 6.09135 55.1937 6.39335 54.4363 6.49881L57.1399 11H54.954L52.5956 6.68576H51.2725V11H49.4606V0.818391ZM52.6819 5.13263C52.9407 5.13263 53.1996 5.12304 53.4584 5.10387C53.7173 5.07511 53.9522 5.01759 54.1631 4.9313C54.3836 4.83543 54.5609 4.69641 54.6952 4.51426C54.8294 4.32251 54.8965 4.05886 54.8965 3.72331C54.8965 3.42611 54.8342 3.18643 54.7096 3.00427C54.5849 2.82212 54.4219 2.68789 54.2206 2.60161C54.0193 2.50574 53.794 2.44342 53.5447 2.41466C53.305 2.3859 53.0701 2.37152 52.84 2.37152H51.2725V5.13263H52.6819ZM63.3492 6.64262L59.5239 0.818391H61.796L64.2983 4.87378L66.8293 0.818391H68.9864L65.1611 6.64262V11H63.3492V6.64262ZM72.7957 0.818391H75.1973L80.1299 8.38269H80.1586V0.818391H81.9706V11H79.6697L74.6364 3.19122H74.6076V11H72.7957V0.818391ZM99.239 3.00427C99.0473 2.72624 98.7884 2.52491 98.4625 2.40028C98.1461 2.26606 97.8105 2.19895 97.4558 2.19895C97.2449 2.19895 97.0388 2.22292 96.8374 2.27085C96.6457 2.31879 96.4683 2.39548 96.3054 2.50094C96.152 2.6064 96.0273 2.74542 95.9315 2.91799C95.8356 3.08097 95.7876 3.27751 95.7876 3.5076C95.7876 3.85274 95.9075 4.11639 96.1472 4.29855C96.3868 4.4807 96.684 4.63889 97.0388 4.77311C97.3935 4.90733 97.7818 5.03676 98.2036 5.16139C98.6255 5.28603 99.0137 5.4586 99.3685 5.6791C99.7232 5.89961 100.02 6.19202 100.26 6.55633C100.5 6.92064 100.62 7.4048 100.62 8.00879C100.62 8.55526 100.519 9.03462 100.318 9.44687C100.116 9.84954 99.843 10.1851 99.4979 10.4535C99.1623 10.722 98.7693 10.9233 98.3187 11.0575C97.8681 11.1917 97.3935 11.2589 96.895 11.2589C96.2622 11.2589 95.6534 11.1534 95.0686 10.9425C94.4838 10.7316 93.9805 10.3768 93.5586 9.8783L94.9248 8.55526C95.1453 8.89082 95.4329 9.15446 95.7876 9.34621C96.152 9.52836 96.5354 9.61944 96.9381 9.61944C97.149 9.61944 97.3599 9.59068 97.5709 9.53316C97.7818 9.47563 97.9735 9.38935 98.1461 9.2743C98.3187 9.15926 98.4577 9.01545 98.5631 8.84288C98.6686 8.66072 98.7213 8.4546 98.7213 8.2245C98.7213 7.8506 98.6015 7.56299 98.3618 7.36166C98.1221 7.16033 97.8249 6.99255 97.4702 6.85833C97.1155 6.71452 96.7272 6.5803 96.3054 6.45567C95.8835 6.33103 95.4952 6.16326 95.1405 5.95234C94.7858 5.73183 94.4886 5.44422 94.2489 5.08949C94.0092 4.72518 93.8894 4.24102 93.8894 3.63703C93.8894 3.10973 93.9948 2.65434 94.2058 2.27085C94.4263 1.88736 94.7091 1.57099 95.0542 1.32172C95.409 1.06286 95.8116 0.87112 96.2622 0.746486C96.7128 0.621853 97.173 0.559536 97.6428 0.559536C98.1797 0.559536 98.6974 0.641027 99.1959 0.804009C99.704 0.966992 100.159 1.23543 100.562 1.60933L99.239 3.00427ZM105.383 0.818391H112.127V2.4578H107.195V4.96006H111.869V6.59947H107.195V9.36059H112.386V11H105.383V0.818391ZM120.344 0.818391H121.911L126.297 11H124.226L123.277 8.67031H118.862L117.942 11H115.914L120.344 0.818391ZM122.644 7.11718L121.077 2.97551L119.481 7.11718H122.644ZM139.35 10.2522C138.094 10.9233 136.69 11.2589 135.137 11.2589C134.351 11.2589 133.627 11.1342 132.965 10.885C132.313 10.6261 131.748 10.2666 131.268 9.80639C130.799 9.33662 130.429 8.77577 130.161 8.12384C129.893 7.47191 129.758 6.74808 129.758 5.95234C129.758 5.13743 129.893 4.39921 130.161 3.73769C130.429 3.06659 130.799 2.49615 131.268 2.02638C131.748 1.5566 132.313 1.19708 132.965 0.947817C133.627 0.688963 134.351 0.559536 135.137 0.559536C135.913 0.559536 136.642 0.655408 137.323 0.847152C138.003 1.02931 138.612 1.36007 139.149 1.83943L137.812 3.19122C137.486 2.87485 137.088 2.63037 136.618 2.4578C136.158 2.28523 135.669 2.19895 135.151 2.19895C134.624 2.19895 134.145 2.29482 133.713 2.48656C133.291 2.66872 132.927 2.92757 132.62 3.26313C132.313 3.58909 132.074 3.97258 131.901 4.41359C131.738 4.8546 131.657 5.32917 131.657 5.83729C131.657 6.38376 131.738 6.88709 131.901 7.34728C132.074 7.80746 132.313 8.20533 132.62 8.54088C132.927 8.87643 133.291 9.14008 133.713 9.33183C134.145 9.52357 134.624 9.61944 135.151 9.61944C135.611 9.61944 136.043 9.5763 136.445 9.49002C136.858 9.40373 137.222 9.26951 137.538 9.08735V6.68576H135.453V5.04635H139.35V10.2522ZM144.374 0.818391H151.118V2.4578H146.186V4.96006H150.86V6.59947H146.186V9.36059H151.377V11H144.374V0.818391ZM156.041 0.818391H159.579C160.068 0.818391 160.538 0.866327 160.988 0.962199C161.449 1.04848 161.856 1.20188 162.211 1.42238C162.566 1.64289 162.848 1.94009 163.059 2.31399C163.27 2.6879 163.376 3.16246 163.376 3.73769C163.376 4.47591 163.17 5.09428 162.757 5.59282C162.355 6.09135 161.775 6.39335 161.017 6.49881L163.721 11H161.535L159.176 6.68576H157.853V11H156.041V0.818391ZM159.263 5.13263C159.522 5.13263 159.78 5.12304 160.039 5.10387C160.298 5.07511 160.533 5.01759 160.744 4.9313C160.964 4.83543 161.142 4.69641 161.276 4.51426C161.41 4.32251 161.477 4.05886 161.477 3.72331C161.477 3.42611 161.415 3.18643 161.29 3.00427C161.166 2.82212 161.003 2.68789 160.801 2.60161C160.6 2.50574 160.375 2.44342 160.126 2.41466C159.886 2.3859 159.651 2.37152 159.421 2.37152H157.853V5.13263H159.263Z" fill="#F8F8F8"/>
</svg>
