<svg width="377" height="25" viewBox="0 0 377 25" fill="none" xmlns="http://www.w3.org/2000/svg">
<path d="M0.604793 0.625151H4.76472V10.5297H4.96282L14.6363 0.625151H20.2489L9.32084 11.4212L20.9752 24H15.1315L4.99583 12.5107H4.76472V24H0.604793V0.625151ZM37.3697 0.625151H40.9683L51.038 24H46.2838L44.1048 18.6515H33.9691L31.8561 24H27.201L37.3697 0.625151ZM42.6521 15.0859L39.0535 5.57745L35.3888 15.0859H42.6521ZM61.9952 4.3889H54.8309V0.625151H73.3195V4.3889H66.1552V24H61.9952V4.3889ZM82.7691 0.625151H86.929V9.93547H97.8571V0.625151H102.017V24H97.8571V13.6992H86.929V24H82.7691V0.625151ZM113.843 0.625151H121.965C123.088 0.625151 124.166 0.735202 125.201 0.955304C126.257 1.1534 127.193 1.50556 128.007 2.01179C128.821 2.51803 129.471 3.20035 129.955 4.05874C130.439 4.91714 130.681 6.00665 130.681 7.32726C130.681 9.02205 130.208 10.4417 129.262 11.5862C128.337 12.7308 127.006 13.4241 125.267 13.6662L131.474 24H126.455L121.041 14.0954H118.003V24H113.843V0.625151ZM121.239 10.5297C121.833 10.5297 122.427 10.5077 123.022 10.4637C123.616 10.3977 124.155 10.2656 124.639 10.0675C125.146 9.84743 125.553 9.52828 125.861 9.11009C126.169 8.66988 126.323 8.0646 126.323 7.29424C126.323 6.61193 126.18 6.06167 125.894 5.64348C125.608 5.22528 125.234 4.91714 124.772 4.71905C124.309 4.49895 123.792 4.35588 123.22 4.28985C122.67 4.22382 122.13 4.19081 121.602 4.19081H118.003V10.5297H121.239ZM145.729 13.9964L136.947 0.625151H142.163L147.908 9.93547L153.719 0.625151H158.671L149.889 13.9964V24H145.729V13.9964ZM167.416 0.625151H172.93L184.254 17.9912H184.32V0.625151H188.48V24H183.197L171.642 6.07268H171.576V24H167.416V0.625151ZM228.124 5.64348C227.684 5.00518 227.09 4.54297 226.342 4.25683C225.615 3.94869 224.845 3.79462 224.031 3.79462C223.546 3.79462 223.073 3.84965 222.611 3.9597C222.171 4.06975 221.764 4.24583 221.389 4.48794C221.037 4.73005 220.751 5.0492 220.531 5.44539C220.311 5.81956 220.201 6.27077 220.201 6.79902C220.201 7.59138 220.476 8.19666 221.026 8.61486C221.576 9.03305 222.259 9.39622 223.073 9.70436C223.888 10.0125 224.779 10.3096 225.747 10.5958C226.716 10.8819 227.607 11.2781 228.422 11.7843C229.236 12.2906 229.918 12.9619 230.469 13.7983C231.019 14.6347 231.294 15.7462 231.294 17.1328C231.294 18.3874 231.063 19.4879 230.601 20.4343C230.138 21.3588 229.511 22.1291 228.719 22.7454C227.948 23.3617 227.046 23.8239 226.011 24.1321C224.977 24.4402 223.888 24.5943 222.743 24.5943C221.29 24.5943 219.893 24.3522 218.55 23.8679C217.207 23.3837 216.052 22.5693 215.083 21.4248L218.22 18.3874C218.726 19.1578 219.386 19.763 220.201 20.2032C221.037 20.6214 221.918 20.8305 222.842 20.8305C223.326 20.8305 223.81 20.7645 224.295 20.6324C224.779 20.5004 225.219 20.3023 225.615 20.0382C226.011 19.774 226.331 19.4439 226.573 19.0477C226.815 18.6295 226.936 18.1563 226.936 17.628C226.936 16.7696 226.661 16.1093 226.111 15.6471C225.56 15.1849 224.878 14.7997 224.064 14.4916C223.249 14.1614 222.358 13.8533 221.389 13.5672C220.421 13.281 219.529 12.8958 218.715 12.4116C217.901 11.9054 217.218 11.2451 216.668 10.4307C216.118 9.59431 215.843 8.4828 215.843 7.09615C215.843 5.88559 216.085 4.84011 216.569 3.9597C217.075 3.07929 217.725 2.35295 218.517 1.78069C219.331 1.18641 220.256 0.746205 221.29 0.460072C222.325 0.173941 223.381 0.0308747 224.46 0.0308747C225.692 0.0308747 226.881 0.217961 228.025 0.592134C229.192 0.966308 230.237 1.58259 231.162 2.44099L228.124 5.64348ZM242.229 0.625151H257.713V4.3889H246.389V10.1336H257.119V13.8973H246.389V20.2363H258.308V24H242.229V0.625151ZM276.576 0.625151H280.175L290.244 24H285.49L283.311 18.6515H273.175L271.062 24H266.407L276.576 0.625151ZM281.858 15.0859L278.26 5.57745L274.595 15.0859H281.858ZM320.212 22.2832C317.328 23.8239 314.104 24.5943 310.538 24.5943C308.733 24.5943 307.072 24.3081 305.553 23.7359C304.056 23.1416 302.758 22.3162 301.657 21.2597C300.579 20.1812 299.731 18.8936 299.115 17.3969C298.499 15.9002 298.19 14.2385 298.19 12.4116C298.19 10.5408 298.499 8.84597 299.115 7.32726C299.731 5.78655 300.579 4.47694 301.657 3.39844C302.758 2.31994 304.056 1.49455 305.553 0.922287C307.072 0.328012 308.733 0.0308747 310.538 0.0308747C312.321 0.0308747 313.994 0.250977 315.557 0.691181C317.119 1.10937 318.517 1.86873 319.749 2.96924L316.679 6.07268C315.931 5.34634 315.017 4.78508 313.939 4.3889C312.882 3.99271 311.76 3.79462 310.571 3.79462C309.361 3.79462 308.26 4.01472 307.27 4.45493C306.301 4.87312 305.465 5.4674 304.761 6.23775C304.056 6.9861 303.506 7.86651 303.11 8.87898C302.736 9.89145 302.549 10.981 302.549 12.1475C302.549 13.4021 302.736 14.5576 303.11 15.6141C303.506 16.6706 304.056 17.584 304.761 18.3544C305.465 19.1247 306.301 19.73 307.27 20.1702C308.26 20.6104 309.361 20.8305 310.571 20.8305C311.628 20.8305 312.618 20.7315 313.543 20.5334C314.489 20.3353 315.325 20.0272 316.052 19.609V14.0954H311.265V10.3317H320.212V22.2832ZM331.745 0.625151H347.229V4.3889H335.905V10.1336H346.635V13.8973H335.905V20.2363H347.823V24H331.745V0.625151ZM358.531 0.625151H366.653C367.775 0.625151 368.854 0.735202 369.888 0.955304C370.945 1.1534 371.88 1.50556 372.694 2.01179C373.509 2.51803 374.158 3.20035 374.642 4.05874C375.127 4.91714 375.369 6.00665 375.369 7.32726C375.369 9.02205 374.895 10.4417 373.949 11.5862C373.025 12.7308 371.693 13.4241 369.954 13.6662L376.161 24H371.143L365.728 14.0954H362.691V24H358.531V0.625151ZM365.926 10.5297C366.521 10.5297 367.115 10.5077 367.709 10.4637C368.303 10.3977 368.843 10.2656 369.327 10.0675C369.833 9.84743 370.24 9.52828 370.548 9.11009C370.857 8.66988 371.011 8.0646 371.011 7.29424C371.011 6.61193 370.868 6.06167 370.581 5.64348C370.295 5.22528 369.921 4.91714 369.459 4.71905C368.997 4.49895 368.479 4.35588 367.907 4.28985C367.357 4.22382 366.818 4.19081 366.289 4.19081H362.691V10.5297H365.926Z" fill="#3C3C3C"/>
</svg>
