<svg width="109" height="187" viewBox="0 0 109 187" fill="none" xmlns="http://www.w3.org/2000/svg">
<path d="M54.8298 184.971C58.2017 184.877 63.7277 184.603 67.0343 183.794C68.7673 183.37 69.0328 179.686 69.0328 179.686C69.0328 179.686 71.4514 179.732 72.2526 178.687C73.097 177.586 72.2526 175.134 72.2526 175.134H77.4709V171.248H73.0298L72.2526 155.149L76.5827 152.04V139.05C60.2258 142.551 50.6544 142.303 33.0768 139.05V152.04L37.4069 155.149L36.6297 171.248H32.1886V175.134H37.4069C37.4069 175.134 36.5625 177.586 37.4069 178.687C38.2081 179.732 40.6267 179.686 40.6267 179.686C40.6267 179.686 40.8922 183.37 42.6252 183.794C45.9318 184.603 51.4578 184.877 54.8298 184.971Z" fill="#3C3C3C"/>
<path d="M51.9313 185.018C51.9313 185.018 53.0957 185.018 54.8298 184.971M76.5827 139.05V152.04L72.2526 155.149L73.0298 171.248H77.4709V175.134H72.2526C72.2526 175.134 73.097 177.586 72.2526 178.687C71.4514 179.732 69.0328 179.686 69.0328 179.686C69.0328 179.686 68.7673 183.37 67.0343 183.794C63.7277 184.603 58.2017 184.877 54.8298 184.971M76.5827 139.05C76.5827 139.05 83.0223 137.295 83.0223 129.058C83.0223 120.82 84.9811 104.487 94.336 91.4269C111.601 63.2242 112.603 42.9434 94.336 19.2059C81.2991 6.31319 72.3341 1.07886 54.7781 1.07886M76.5827 139.05C60.2258 142.551 50.6544 142.303 33.0768 139.05M57.7282 185.018C57.7282 185.018 56.5638 185.018 54.8298 184.971M33.0768 139.05V152.04L37.4069 155.149L36.6297 171.248H32.1886V175.134H37.4069C37.4069 175.134 36.5625 177.586 37.4069 178.687C38.2081 179.732 40.6267 179.686 40.6267 179.686C40.6267 179.686 40.8922 183.37 42.6252 183.794C45.9318 184.603 51.4578 184.877 54.8298 184.971M33.0768 139.05C33.0768 139.05 26.6372 137.295 26.6372 129.058C26.6372 120.82 24.6784 104.487 15.3235 91.4269C-1.94133 63.2242 -2.94304 42.9434 15.3235 19.2059C28.3604 6.31319 37.3254 1.07886 54.8814 1.07886" stroke="#3C3C3C" stroke-width="2"/>
</svg>
