<svg width="41" height="41" viewBox="0 0 41 41" fill="none" xmlns="http://www.w3.org/2000/svg">
<path fill-rule="evenodd" clip-rule="evenodd" d="M20.6041 40.6913C31.8205 40.6913 40.9133 31.5986 40.9133 20.3822C40.9133 9.16572 31.8205 0.072998 20.6041 0.072998C9.38765 0.072998 0.294922 9.16572 0.294922 20.3822C0.294922 31.5986 9.38765 40.6913 20.6041 40.6913ZM20.8871 19.2424C19.3005 19.2424 11.1265 14.6071 11.1265 14.6071V13.8833C11.1265 12.9864 11.8544 12.2586 12.7528 12.2586H29.0213C29.9206 12.2586 30.6485 12.9864 30.6485 13.8833L30.6355 14.6957C30.6355 14.6957 22.55 19.2424 20.8871 19.2424ZM30.6355 17.1327C30.6355 17.1327 22.6263 21.4764 20.8871 21.4764C19.3005 21.4764 11.1387 17.1327 11.1395 17.1327L11.1265 26.8811C11.1265 27.778 11.8552 28.5059 12.7528 28.5059H29.0213C29.9206 28.5059 30.6485 27.778 30.6485 26.8811L30.6355 17.1327Z" fill="#3C3C3C"/>
</svg>
