<svg width="157" height="37" viewBox="0 0 157 37" fill="none" xmlns="http://www.w3.org/2000/svg">
<path d="M0.735745 1.55538H13.3043C15.0566 1.55538 16.7133 1.71468 18.2744 2.03327C19.8355 2.35187 21.1895 2.90941 22.3365 3.70589C23.5153 4.47052 24.4392 5.52188 25.1082 6.85998C25.8091 8.16622 26.1596 9.82291 26.1596 11.8301C26.1596 13.8053 25.841 15.462 25.2038 16.8001C24.5666 18.1382 23.6905 19.2055 22.5754 20.002C21.4603 20.7985 20.1382 21.372 18.6089 21.7224C17.0797 22.041 15.423 22.2003 13.6388 22.2003H8.19086V35.3901H0.735745V1.55538ZM8.19086 15.8921H13.1609C13.83 15.8921 14.4672 15.8284 15.0725 15.701C15.7097 15.5735 16.2672 15.3665 16.7451 15.0797C17.2549 14.7611 17.6531 14.347 17.9399 13.8372C18.2585 13.2956 18.4178 12.6265 18.4178 11.8301C18.4178 10.9699 18.2107 10.2849 17.7965 9.77512C17.4142 9.23351 16.9044 8.81934 16.2672 8.5326C15.6619 8.24587 14.9769 8.07064 14.2123 8.00692C13.4477 7.91134 12.7149 7.86355 12.014 7.86355H8.19086V15.8921ZM38.5792 18.4728C38.5792 15.7647 39.0252 13.3115 39.9173 11.1132C40.8412 8.91492 42.1156 7.05114 43.7404 5.52188C45.3653 3.96077 47.2928 2.76604 49.5229 1.93769C51.7531 1.10935 54.1903 0.695174 56.8347 0.695174C59.479 0.695174 61.9163 1.10935 64.1464 1.93769C66.3766 2.76604 68.3041 3.96077 69.9289 5.52188C71.5537 7.05114 72.8122 8.91492 73.7043 11.1132C74.6282 13.3115 75.0901 15.7647 75.0901 18.4728C75.0901 21.1808 74.6282 23.634 73.7043 25.8323C72.8122 28.0306 71.5537 29.9103 69.9289 31.4714C68.3041 33.0007 66.3766 34.1795 64.1464 35.0078C61.9163 35.8362 59.479 36.2503 56.8347 36.2503C54.1903 36.2503 51.7531 35.8362 49.5229 35.0078C47.2928 34.1795 45.3653 33.0007 43.7404 31.4714C42.1156 29.9103 40.8412 28.0306 39.9173 25.8323C39.0252 23.634 38.5792 21.1808 38.5792 18.4728ZM46.321 18.4728C46.321 20.0657 46.56 21.5313 47.0379 22.8694C47.5476 24.1756 48.2645 25.3225 49.1884 26.3102C50.1123 27.266 51.2115 28.0147 52.4859 28.5563C53.7921 29.0979 55.2417 29.3687 56.8347 29.3687C58.4276 29.3687 59.8613 29.0979 61.1357 28.5563C62.4419 28.0147 63.557 27.266 64.4809 26.3102C65.4049 25.3225 66.1058 24.1756 66.5837 22.8694C67.0934 21.5313 67.3483 20.0657 67.3483 18.4728C67.3483 16.9116 67.0934 15.462 66.5837 14.1239C66.1058 12.7858 65.4049 11.6389 64.4809 10.6831C63.557 9.69547 62.4419 8.93085 61.1357 8.38924C59.8613 7.84763 58.4276 7.57682 56.8347 7.57682C55.2417 7.57682 53.7921 7.84763 52.4859 8.38924C51.2115 8.93085 50.1123 9.69547 49.1884 10.6831C48.2645 11.6389 47.5476 12.7858 47.0379 14.1239C46.56 15.462 46.321 16.9116 46.321 18.4728ZM90.0019 1.55538H97.457V28.5085H111.268V35.3901H90.0019V1.55538ZM136.076 1.55538H142.241L156.96 35.3901H148.549L145.634 28.2218H132.492L129.672 35.3901H121.452L136.076 1.55538ZM138.943 11.4L134.833 21.9136H143.101L138.943 11.4Z" fill="#3C3C3C"/>
</svg>
