<svg width="117" height="95" viewBox="0 0 117 95" fill="none" xmlns="http://www.w3.org/2000/svg">
<path d="M18.5689 16.9248H98.2116V79.3312H18.5689V16.9248Z" stroke="#3C3C3C" stroke-width="2"/>
<mask id="path-2-inside-1" fill="white">
<path d="M87.397 56.1245C87.397 58.993 86.5464 61.7971 84.9527 64.1822C83.3591 66.5673 81.0939 68.4262 78.4438 69.5239C75.7936 70.6217 72.8775 70.9089 70.0641 70.3493C67.2507 69.7896 64.6665 68.4083 62.6381 66.38C60.6098 64.3516 59.2285 61.7674 58.6689 58.954C58.1093 56.1406 58.3965 53.2245 59.4942 50.5743C60.5919 47.9242 62.4509 45.6591 64.8359 44.0654C67.221 42.4718 70.0251 41.6211 72.8936 41.6211L72.8936 56.1245H87.397Z"/>
</mask>
<path d="M87.397 56.1245C87.397 58.993 86.5464 61.7971 84.9527 64.1822C83.3591 66.5673 81.0939 68.4262 78.4438 69.5239C75.7936 70.6217 72.8775 70.9089 70.0641 70.3493C67.2507 69.7896 64.6665 68.4083 62.6381 66.38C60.6098 64.3516 59.2285 61.7674 58.6689 58.954C58.1093 56.1406 58.3965 53.2245 59.4942 50.5743C60.5919 47.9242 62.4509 45.6591 64.8359 44.0654C67.221 42.4718 70.0251 41.6211 72.8936 41.6211L72.8936 56.1245H87.397Z" stroke="#3C3C3C" stroke-width="4" mask="url(#path-2-inside-1)"/>
<rect x="28.9654" y="26.3713" width="59.5209" height="8.35203" stroke="#3C3C3C" stroke-width="2"/>
<rect x="28.6299" y="41.7725" width="22.5888" height="27.8555" stroke="#3C3C3C" stroke-width="2"/>
</svg>
