<svg width="116" height="94" viewBox="0 0 116 94" fill="none" xmlns="http://www.w3.org/2000/svg">
<rect width="116" height="94" fill="#3C3C3C"/>
<path d="M18.1787 16.0038H97.8214V78.4102H18.1787V16.0038Z" fill="#3C3C3C" stroke="#CCCCCC" stroke-width="2"/>
<mask id="path-3-inside-1" fill="white">
<path d="M87.0068 55.2035C87.0068 58.072 86.1562 60.8761 84.5625 63.2612C82.9689 65.6462 80.7037 67.5052 78.0536 68.6029C75.4035 69.7006 72.4873 69.9878 69.6739 69.4282C66.8605 68.8686 64.2763 67.4873 62.2479 65.459C60.2196 63.4306 58.8383 60.8464 58.2787 58.033C57.7191 55.2196 58.0063 52.3035 59.104 49.6533C60.2017 47.0032 62.0607 44.738 64.4457 43.1444C66.8308 41.5507 69.6349 40.7001 72.5034 40.7001L72.5034 55.2035H87.0068Z"/>
</mask>
<path d="M87.0068 55.2035C87.0068 58.072 86.1562 60.8761 84.5625 63.2612C82.9689 65.6462 80.7037 67.5052 78.0536 68.6029C75.4035 69.7006 72.4873 69.9878 69.6739 69.4282C66.8605 68.8686 64.2763 67.4873 62.2479 65.459C60.2196 63.4306 58.8383 60.8464 58.2787 58.033C57.7191 55.2196 58.0063 52.3035 59.104 49.6533C60.2017 47.0032 62.0607 44.738 64.4457 43.1444C66.8308 41.5507 69.6349 40.7001 72.5034 40.7001L72.5034 55.2035H87.0068Z" fill="#3C3C3C" stroke="#CCCCCC" stroke-width="4" mask="url(#path-3-inside-1)"/>
<rect x="28.5752" y="25.4503" width="59.5209" height="8.35203" fill="#3C3C3C" stroke="#CCCCCC" stroke-width="2"/>
<rect x="28.2397" y="40.8514" width="22.5888" height="27.8555" fill="#3C3C3C" stroke="#CCCCCC" stroke-width="2"/>
</svg>
