<svg width="378" height="333" viewBox="0 0 378 333" fill="none" xmlns="http://www.w3.org/2000/svg">
<g clip-path="url(#clip0)">
<g filter="url(#filter0_dd)">
<rect x="45.1042" y="-459.966" width="345.551" height="746.057" rx="33.3061" fill="#FDFDFD"/>
<rect x="48.1698" y="-456.9" width="339.42" height="739.926" rx="30.2406" stroke="white" stroke-width="6.13112"/>
</g>
<path d="M49.3035 -420.053C49.3035 -438.448 64.2156 -453.36 82.6108 -453.36H353.148C371.543 -453.36 386.455 -438.448 386.455 -420.053V241.077C386.455 259.472 371.543 274.384 353.148 274.384H82.6107C64.2156 274.384 49.3035 259.472 49.3035 241.077V-420.053Z" fill="url(#paint0_linear)"/>
<g filter="url(#filter1_dd)">
<rect x="77.0273" y="135.378" width="267.641" height="107.869" rx="33.3061" fill="#FDFDFD"/>
<rect x="80.0929" y="138.443" width="261.51" height="101.738" rx="30.2406" stroke="white" stroke-width="6.13112"/>
</g>
<path d="M288.782 176.126L307.288 191.86L288.782 207.593" stroke="#D7D7D7" stroke-width="1.53278"/>
<path d="M253.445 176.126L271.95 191.86L253.445 207.593" stroke="#D7D7D7" stroke-width="1.53278"/>
<path d="M217.879 176.127L236.385 191.86L217.879 207.594" stroke="#C8C8C8" stroke-width="1.53278"/>
<path d="M143.3 193.413C143.3 195.373 142.961 197.095 142.283 198.579C141.605 200.054 140.634 201.19 139.37 201.987C138.116 202.774 136.668 203.168 135.029 203.168C133.408 203.168 131.96 202.774 130.687 201.987C129.423 201.19 128.443 200.058 127.747 198.593C127.06 197.127 126.712 195.438 126.703 193.523V192.397C126.703 190.446 127.046 188.724 127.733 187.231C128.429 185.738 129.405 184.597 130.66 183.81C131.924 183.013 133.371 182.614 135.001 182.614C136.632 182.614 138.074 183.008 139.329 183.796C140.593 184.574 141.569 185.701 142.256 187.176C142.943 188.641 143.291 190.349 143.3 192.3V193.413ZM139.824 192.369C139.824 190.152 139.403 188.453 138.56 187.272C137.726 186.09 136.54 185.499 135.001 185.499C133.499 185.499 132.322 186.09 131.47 187.272C130.628 188.444 130.197 190.107 130.179 192.259V193.413C130.179 195.612 130.605 197.311 131.457 198.511C132.318 199.71 133.508 200.31 135.029 200.31C136.568 200.31 137.749 199.724 138.574 198.552C139.407 197.379 139.824 195.666 139.824 193.413V192.369ZM158.289 194.416H150.238V202.893H146.762V182.889H159.471V185.692H150.238V191.641H158.289V194.416ZM173.76 194.416H165.709V202.893H162.232V182.889H174.941V185.692H165.709V191.641H173.76V194.416Z" fill="#CACACA"/>
<g filter="url(#filter2_dd)">
<rect x="77.0273" y="-5.74597" width="115.911" height="107.869" rx="33.3061" fill="#FDFDFD"/>
<rect x="80.0929" y="-2.68041" width="109.779" height="101.738" rx="30.2406" stroke="white" stroke-width="6.13112"/>
</g>
<circle cx="134.982" cy="49.2756" r="18.9604" fill="#FDFDFD" stroke="#C7C7C7" stroke-width="1.53278"/>
<path d="M148.453 72.6334L148.802 65.856C148.832 65.2655 148.229 64.8503 147.689 65.0894L142.091 67.5643C141.55 67.8034 141.452 68.5288 141.909 68.9037L147.157 73.2062C147.661 73.6188 148.419 73.2834 148.453 72.6334Z" fill="#FDFDFD" stroke="#C7C7C7" stroke-width="1.53278"/>
<path d="M121.511 72.6334L121.162 65.856C121.131 65.2655 121.734 64.8503 122.275 65.0894L127.873 67.5643C128.413 67.8034 128.512 68.5288 128.055 68.9037L122.807 73.2062C122.303 73.6188 121.545 73.2834 121.511 72.6334Z" fill="#FDFDFD" stroke="#C7C7C7" stroke-width="1.53278"/>
<path d="M124.594 31.053C124.594 22.0587 145.37 21.6151 145.37 31.0528" stroke="#C7C7C7" stroke-width="1.53278"/>
<rect x="115.83" y="33.0111" width="10.4958" height="6.93817" rx="3.39334" transform="rotate(-36.8088 115.83 33.0111)" fill="#FDFDFD" stroke="#C7C7C7" stroke-width="1.53278"/>
<rect x="-1.07278" y="0.154422" width="10.4958" height="6.93817" rx="3.39334" transform="matrix(-0.80064 -0.599146 -0.599146 0.80064 153.366 32.2447)" fill="#FDFDFD" stroke="#C7C7C7" stroke-width="1.53278"/>
<circle cx="134.982" cy="50.3715" r="1.88847" fill="#C7C7C7"/>
<path d="M125.328 41.9027L134.98 50.5355L142.174 44.061" stroke="#C7C7C7" stroke-width="1.53278"/>
<g filter="url(#filter3_dd)">
<rect x="212.834" y="-5.74609" width="132.6" height="107.869" rx="33.3061" fill="#FDFDFD"/>
<rect x="215.9" y="-2.68054" width="126.469" height="101.738" rx="30.2406" stroke="white" stroke-width="6.13112"/>
</g>
<path d="M283.947 41.6365H292.675V43.2815H281.568V41.7727L289.93 29.6811H281.705V28.0256H292.34V29.5029L283.947 41.6365Z" fill="#CACACA"/>
<path d="M273.813 56.0326H280.048V57.2076H272.114V56.1299L278.087 47.4931H272.212V46.3105H279.808V47.3658L273.813 56.0326Z" fill="#CACACA"/>
<path d="M266.33 68.4205H271.006V69.3018H265.056V68.4935L269.535 62.0158H265.129V61.1289H270.826V61.9204L266.33 68.4205Z" fill="#CACACA"/>
</g>
<defs>
<filter id="filter0_dd" x="-13.1815" y="-518.252" width="453.796" height="854.302" filterUnits="userSpaceOnUse" color-interpolation-filters="sRGB">
<feFlood flood-opacity="0" result="BackgroundImageFix"/>
<feColorMatrix in="SourceAlpha" type="matrix" values="0 0 0 0 0 0 0 0 0 0 0 0 0 0 0 0 0 0 127 0"/>
<feOffset dx="16.6531" dy="16.6531"/>
<feGaussianBlur stdDeviation="16.6531"/>
<feColorMatrix type="matrix" values="0 0 0 0 0.39492 0 0 0 0 0.205382 0 0 0 0 0.704167 0 0 0 0.2 0"/>
<feBlend mode="normal" in2="BackgroundImageFix" result="effect1_dropShadow"/>
<feColorMatrix in="SourceAlpha" type="matrix" values="0 0 0 0 0 0 0 0 0 0 0 0 0 0 0 0 0 0 127 0"/>
<feOffset dx="-24.9796" dy="-24.9796"/>
<feGaussianBlur stdDeviation="16.6531"/>
<feColorMatrix type="matrix" values="0 0 0 0 0.998568 0 0 0 0 0.998568 0 0 0 0 0.998568 0 0 0 0.7 0"/>
<feBlend mode="normal" in2="effect1_dropShadow" result="effect2_dropShadow"/>
<feBlend mode="normal" in="SourceGraphic" in2="effect2_dropShadow" result="shape"/>
</filter>
<filter id="filter1_dd" x="18.7416" y="77.0922" width="375.886" height="216.114" filterUnits="userSpaceOnUse" color-interpolation-filters="sRGB">
<feFlood flood-opacity="0" result="BackgroundImageFix"/>
<feColorMatrix in="SourceAlpha" type="matrix" values="0 0 0 0 0 0 0 0 0 0 0 0 0 0 0 0 0 0 127 0"/>
<feOffset dx="16.6531" dy="16.6531"/>
<feGaussianBlur stdDeviation="16.6531"/>
<feColorMatrix type="matrix" values="0 0 0 0 0.39492 0 0 0 0 0.205382 0 0 0 0 0.704167 0 0 0 0.2 0"/>
<feBlend mode="normal" in2="BackgroundImageFix" result="effect1_dropShadow"/>
<feColorMatrix in="SourceAlpha" type="matrix" values="0 0 0 0 0 0 0 0 0 0 0 0 0 0 0 0 0 0 127 0"/>
<feOffset dx="-24.9796" dy="-24.9796"/>
<feGaussianBlur stdDeviation="16.6531"/>
<feColorMatrix type="matrix" values="0 0 0 0 0.998568 0 0 0 0 0.998568 0 0 0 0 0.998568 0 0 0 0.7 0"/>
<feBlend mode="normal" in2="effect1_dropShadow" result="effect2_dropShadow"/>
<feBlend mode="normal" in="SourceGraphic" in2="effect2_dropShadow" result="shape"/>
</filter>
<filter id="filter2_dd" x="18.7416" y="-64.0317" width="224.156" height="216.114" filterUnits="userSpaceOnUse" color-interpolation-filters="sRGB">
<feFlood flood-opacity="0" result="BackgroundImageFix"/>
<feColorMatrix in="SourceAlpha" type="matrix" values="0 0 0 0 0 0 0 0 0 0 0 0 0 0 0 0 0 0 127 0"/>
<feOffset dx="16.6531" dy="16.6531"/>
<feGaussianBlur stdDeviation="16.6531"/>
<feColorMatrix type="matrix" values="0 0 0 0 0.39492 0 0 0 0 0.205382 0 0 0 0 0.704167 0 0 0 0.2 0"/>
<feBlend mode="normal" in2="BackgroundImageFix" result="effect1_dropShadow"/>
<feColorMatrix in="SourceAlpha" type="matrix" values="0 0 0 0 0 0 0 0 0 0 0 0 0 0 0 0 0 0 127 0"/>
<feOffset dx="-24.9796" dy="-24.9796"/>
<feGaussianBlur stdDeviation="16.6531"/>
<feColorMatrix type="matrix" values="0 0 0 0 0.998568 0 0 0 0 0.998568 0 0 0 0 0.998568 0 0 0 0.7 0"/>
<feBlend mode="normal" in2="effect1_dropShadow" result="effect2_dropShadow"/>
<feBlend mode="normal" in="SourceGraphic" in2="effect2_dropShadow" result="shape"/>
</filter>
<filter id="filter3_dd" x="154.548" y="-64.0318" width="240.845" height="216.114" filterUnits="userSpaceOnUse" color-interpolation-filters="sRGB">
<feFlood flood-opacity="0" result="BackgroundImageFix"/>
<feColorMatrix in="SourceAlpha" type="matrix" values="0 0 0 0 0 0 0 0 0 0 0 0 0 0 0 0 0 0 127 0"/>
<feOffset dx="16.6531" dy="16.6531"/>
<feGaussianBlur stdDeviation="16.6531"/>
<feColorMatrix type="matrix" values="0 0 0 0 0.39492 0 0 0 0 0.205382 0 0 0 0 0.704167 0 0 0 0.2 0"/>
<feBlend mode="normal" in2="BackgroundImageFix" result="effect1_dropShadow"/>
<feColorMatrix in="SourceAlpha" type="matrix" values="0 0 0 0 0 0 0 0 0 0 0 0 0 0 0 0 0 0 127 0"/>
<feOffset dx="-24.9796" dy="-24.9796"/>
<feGaussianBlur stdDeviation="16.6531"/>
<feColorMatrix type="matrix" values="0 0 0 0 0.998568 0 0 0 0 0.998568 0 0 0 0 0.998568 0 0 0 0.7 0"/>
<feBlend mode="normal" in2="effect1_dropShadow" result="effect2_dropShadow"/>
<feBlend mode="normal" in="SourceGraphic" in2="effect2_dropShadow" result="shape"/>
</filter>
<linearGradient id="paint0_linear" x1="63.091" y1="-439.918" x2="566.502" y2="-46.7609" gradientUnits="userSpaceOnUse">
<stop stop-color="#FFFFEE"/>
<stop offset="0.583333" stop-color="#FFFFEA" stop-opacity="0"/>
</linearGradient>
<clipPath id="clip0">
</clipPath>
</defs>
</svg>
