<svg width="34" height="35" viewBox="0 0 34 35" fill="none" xmlns="http://www.w3.org/2000/svg">
<path fill-rule="evenodd" clip-rule="evenodd" d="M17.2136 0.505371C7.963 0.505371 0.463867 8.0045 0.463867 17.2552C0.463867 26.5058 7.963 34.0049 17.2136 34.0049C26.4643 34.0049 33.9634 26.5058 33.9634 17.2552C33.9634 8.0045 26.4643 0.505371 17.2136 0.505371ZM25.9649 19.0383C26.0857 18.4503 26.1472 17.847 26.1472 17.2428C26.1472 16.6382 26.0857 16.0337 25.9649 15.4469C25.8471 14.8728 25.6726 14.3083 25.444 13.7703C25.2207 13.2407 24.9437 12.7302 24.6201 12.2545C24.3012 11.7815 23.9339 11.3389 23.5304 10.9342C23.1261 10.5317 22.6811 10.1663 22.2087 9.84657C21.7315 9.52378 21.2206 9.24718 20.6911 9.02243C20.1515 8.79461 19.5866 8.61997 19.013 8.50321C18.4241 8.383 17.8186 8.322 17.2136 8.322C16.6081 8.322 16.0027 8.383 15.4147 8.50321C14.8401 8.61993 14.2753 8.79458 13.7361 9.02243C13.2065 9.24722 12.6953 9.52378 12.2181 9.84657C11.7457 10.1663 11.3007 10.5317 10.8972 10.9342C10.4933 11.3389 10.126 11.7815 9.80668 12.2545C9.48475 12.7302 9.2073 13.2407 8.9831 13.7703C8.75449 14.3083 8.5796 14.8728 8.46138 15.4469C8.3418 16.0337 8.28075 16.6382 8.28075 17.2428C8.28075 17.847 8.34183 18.4503 8.46134 19.0383C8.57956 19.6124 8.75446 20.1761 8.98306 20.7149C9.20726 21.2441 9.48471 21.7542 9.80664 22.2299C10.1259 22.7025 10.4933 23.1459 10.8972 23.5501C11.3007 23.9526 11.7456 24.3189 12.218 24.6391C12.6952 24.9605 13.2065 25.2371 13.7361 25.4615C14.2752 25.6889 14.8401 25.8631 15.4146 25.9807C16.0026 26.1018 16.6081 26.1636 17.2136 26.1636C17.8186 26.1636 18.4241 26.1018 19.0129 25.9807C19.5865 25.8631 20.1515 25.6889 20.6911 25.4615C21.2206 25.2371 21.7314 24.9605 22.2086 24.6391C22.681 24.3189 23.126 23.9526 23.5304 23.5501C23.9339 23.1459 24.3012 22.7025 24.62 22.2299C24.9437 21.7542 25.2207 21.2442 25.444 20.7149C25.6726 20.1761 25.8471 19.6124 25.9649 19.0383Z" fill="#F8F8F8"/>
<path fill-rule="evenodd" clip-rule="evenodd" d="M17.2129 9.62561C19.1445 9.62561 20.9081 10.343 22.2512 11.5256L22.2505 11.5266C22.2145 11.5805 21.1223 13.2141 18.2672 14.2829C16.9984 11.9565 15.6083 10.0972 15.4277 9.85564L15.4153 9.83905C15.9915 9.70054 16.5931 9.62561 17.2129 9.62561ZM19.3612 16.5228C19.2029 16.1512 19.0314 15.7814 18.8544 15.4181C21.8471 14.1976 23.0743 12.4469 23.104 12.4045L23.1044 12.4039C24.1749 13.7015 24.8218 15.3589 24.8392 17.1648L24.8302 17.1629C24.63 17.1213 22.0967 16.5944 19.5261 16.9174C19.4725 16.7868 19.4175 16.6561 19.3612 16.5228ZM24.7451 18.4503C24.4057 20.5734 23.1891 22.4064 21.4761 23.5606C21.3985 23.1016 20.9919 20.8652 19.9912 18.1193C22.4537 17.7251 24.5881 18.3998 24.7451 18.4503ZM18.5619 18.4722L18.5434 18.4782C18.5326 18.4815 18.5219 18.4849 18.5113 18.4888C14.0101 20.0557 12.5402 23.2135 12.5243 23.248C13.8194 24.2537 15.4439 24.8605 17.2132 24.8605C18.2696 24.8605 19.276 24.6457 20.1916 24.2568C20.0786 23.5912 19.6354 21.2582 18.5619 18.4722ZM17.4229 15.9155C13.4948 17.0898 9.72544 17.0053 9.59023 17.0001C9.58954 17.0255 9.58869 17.0506 9.58785 17.0757L9.58785 17.0757C9.58597 17.1314 9.58411 17.1866 9.58411 17.2431C9.58411 19.2002 10.3235 20.9843 11.5388 22.3334C11.5362 22.3294 13.6239 18.6309 17.7409 17.3015C17.8403 17.2684 17.9416 17.2387 18.0419 17.21C17.8504 16.7771 17.6414 16.3432 17.4229 15.9155ZM9.7476 15.6723C10.2427 13.3132 11.8305 11.3557 13.958 10.3525C14.0596 10.488 15.4703 12.3997 16.7907 14.7423C13.1664 15.7039 10.0157 15.6748 9.75494 15.6724L9.7476 15.6723Z" fill="#F8F8F8"/>
</svg>
