<svg width="35" height="35" viewBox="0 0 35 35" fill="none" xmlns="http://www.w3.org/2000/svg">
<path fill-rule="evenodd" clip-rule="evenodd" d="M17.7132 0.505371C8.46251 0.505371 0.963379 8.0045 0.963379 17.2552C0.963379 26.5058 8.46251 34.0049 17.7132 34.0049C26.9638 34.0049 34.4629 26.5058 34.4629 17.2552C34.4629 8.0045 26.9638 0.505371 17.7132 0.505371ZM24.9273 13.5354H20.1959V12.1799H24.9273V13.5354ZM24.5104 14.6732C25.0808 14.924 25.5504 15.3219 25.9202 15.865C26.2574 16.3438 26.4738 16.8992 26.5725 17.5304C26.6303 17.8993 26.6534 18.434 26.6439 19.1294H20.6951C20.7308 19.9367 21.0123 20.5036 21.5502 20.828C21.8758 21.0301 22.2676 21.1316 22.7278 21.1316C23.212 21.1316 23.6081 21.0083 23.9116 20.7627C24.0787 20.629 24.2257 20.4445 24.3518 20.2083H26.5315C26.4738 20.685 26.209 21.171 25.7405 21.6643C25.0094 22.4467 23.9852 22.8385 22.6689 22.8385C21.5817 22.8385 20.6226 22.5089 19.7938 21.8477C18.9608 21.1876 18.5469 20.1119 18.5469 18.6237C18.5469 17.2278 18.9219 16.1572 19.6709 15.4121C20.422 14.669 21.3937 14.2949 22.5901 14.2949C23.3013 14.2949 23.9411 14.4214 24.5104 14.6732ZM17.4828 14.4951C17.4828 13.8494 17.3137 13.296 16.9765 12.8328C16.4145 12.0783 15.4617 11.6918 14.115 11.6721H8.77966V22.564H13.7547C14.3157 22.564 14.8346 22.5163 15.3147 22.4179C15.7947 22.3184 16.2097 22.137 16.5616 21.8707C16.8746 21.6385 17.1351 21.3525 17.3431 21.0136C17.6719 20.5017 17.8358 19.9224 17.8358 19.2767C17.8358 18.6508 17.6919 18.1181 17.4062 17.6808C17.1173 17.2424 16.6929 16.9222 16.1298 16.7191C16.5007 16.5325 16.7811 16.3253 16.9723 16.0993C17.3137 15.6952 17.4828 15.1594 17.4828 14.4951Z" fill="#F8F8F8"/>
<path fill-rule="evenodd" clip-rule="evenodd" d="M10.9807 13.5632V15.9665H13.6657C14.1437 15.9665 14.5334 15.8763 14.8338 15.696C15.1322 15.5157 15.2824 15.1965 15.2824 14.7405C15.2824 14.2317 15.0849 13.8969 14.6899 13.7332C14.3475 13.6202 13.9126 13.5632 13.3842 13.5632H10.9807ZM21.3174 16.493C21.0159 16.7997 20.8258 17.2153 20.748 17.7397H24.4279C24.389 17.1801 24.1978 16.7572 23.8596 16.466C23.5171 16.1769 23.0959 16.0328 22.5916 16.0328C22.0454 16.0328 21.6189 16.1862 21.3174 16.493ZM10.9804 20.6737V17.7689H13.6991C14.1718 17.773 14.5405 17.8352 14.8031 17.9534C15.2727 18.1658 15.5059 18.5544 15.5059 19.1224C15.5059 19.7918 15.2643 20.2437 14.78 20.482C14.5142 20.6095 14.1403 20.6737 13.6613 20.6737H10.9804Z" fill="#F8F8F8"/>
</svg>
