<svg width="35" height="35" viewBox="0 0 35 35" fill="none" xmlns="http://www.w3.org/2000/svg">
<path fill-rule="evenodd" clip-rule="evenodd" d="M17.7141 34.0051C26.9648 34.0051 34.4639 26.5059 34.4639 17.2553C34.4639 8.00463 26.9648 0.505493 17.7141 0.505493C8.46349 0.505493 0.964355 8.00463 0.964355 17.2553C0.964355 26.5059 8.46349 34.0051 17.7141 34.0051ZM17.9475 16.3154C16.639 16.3154 9.89756 12.4925 9.89756 12.4925V11.8955C9.89756 11.1558 10.4979 10.5555 11.2389 10.5555H24.6561C25.3978 10.5555 25.9981 11.1558 25.9981 11.8955L25.9874 12.5655C25.9874 12.5655 19.319 16.3154 17.9475 16.3154ZM25.9874 14.5753C25.9874 14.5753 19.382 18.1577 17.9475 18.1577C16.639 18.1577 9.90761 14.5753 9.90828 14.5753L9.89756 22.6152C9.89756 23.3549 10.4985 23.9552 11.2389 23.9552H24.6561C25.3978 23.9552 25.9981 23.3549 25.9981 22.6152L25.9874 14.5753Z" fill="#F8F8F8"/>
</svg>
