<svg width="117" height="95" viewBox="0 0 117 95" fill="none" xmlns="http://www.w3.org/2000/svg">
<path d="M46.4539 65.1902H69.7075M46.4539 70.2878H69.7075M41.6619 12.3779H74.366V76.7844H41.6619V12.3779ZM46.4538 19.8396H69.7075V32.1441H46.4538V19.8396ZM46.4539 36.011H69.7075V59.5653H46.4539V36.011Z" stroke="#3C3C3C" stroke-width="2"/>
<path d="M72.3072 57.996L65.3513 50.3445C64.0245 48.8849 61.747 48.8307 60.3522 50.2254C59.0446 51.533 58.9985 53.6384 60.2476 55.002L72.016 67.8483C73.6375 69.6184 72.1898 72.4516 69.8053 72.1746C68.8892 72.0682 67.9855 72.4565 67.4322 73.1943L67.1871 73.521C65.9697 75.1442 66.4898 77.471 68.2824 78.4215L80.2927 84.7893C83.919 86.712 88.3597 86.1671 91.4136 83.4248C92.706 82.2644 93.6661 80.7809 94.1954 79.1267L96.2881 72.5872C97.3554 69.2518 96.6885 65.6038 94.5103 62.8617L87.58 54.1377C86.9396 53.3315 85.7163 53.3289 85.0725 54.1323L84.5182 54.824C84.2494 55.1594 83.7552 55.2031 83.4318 54.9201C83.1216 54.6487 82.6511 54.6761 82.3746 54.9817L80.8127 56.7081C80.428 57.1332 79.7846 57.1999 79.3209 56.8627C78.8773 56.54 78.2653 56.5856 77.8742 56.9704L76.7076 58.1184C75.472 59.3342 73.4732 59.2786 72.3072 57.996Z" fill="#FDFDFD" stroke="#3C3C3C" stroke-width="2"/>
</svg>
