<svg width="116" height="94" viewBox="0 0 116 94" fill="none" xmlns="http://www.w3.org/2000/svg">
<rect width="116" height="94" fill="#3C3C3C"/>
<path d="M41.2717 12.2378H73.9759V76.6442H41.2717V12.2378Z" fill="#3C3C3C"/>
<path d="M46.0637 19.6995H69.3174V32.0039H46.0637V19.6995Z" fill="#3C3C3C"/>
<path d="M46.0637 35.8708H69.3174V59.4251H46.0637V35.8708Z" fill="#3C3C3C"/>
<path d="M46.0637 65.05H69.3174M46.0637 70.1477H69.3174M41.2717 12.2378H73.9759V76.6442H41.2717V12.2378ZM46.0637 19.6995H69.3174V32.0039H46.0637V19.6995ZM46.0637 35.8708H69.3174V59.4251H46.0637V35.8708Z" stroke="#CCCCCC" stroke-width="2"/>
<path d="M71.917 57.8558L64.9612 50.2043C63.6344 48.7448 61.3569 48.6906 59.9621 50.0853C58.6545 51.3929 58.6084 53.4983 59.8575 54.8618L71.6258 67.7081C73.2474 69.4782 71.7997 72.3115 69.4151 72.0345C68.499 71.928 67.5954 72.3163 67.042 73.0541L66.797 73.3808C65.5796 75.0041 66.0996 77.3309 67.8923 78.2813L79.9026 84.6492C83.5288 86.5718 87.9696 86.027 91.0235 83.2847C92.3158 82.1243 93.2759 80.6407 93.8053 78.9865L95.8979 72.447C96.9653 69.1117 96.2984 65.4637 94.1201 62.7216L87.1898 53.9975C86.5495 53.1914 85.3262 53.1888 84.6823 53.9922L84.128 54.6839C83.8592 55.0193 83.3651 55.063 83.0416 54.7799C82.7315 54.5085 82.261 54.536 81.9845 54.8416L80.4226 56.5679C80.0379 56.9931 79.3945 57.0598 78.9308 56.7226C78.4871 56.3999 77.8751 56.4454 77.4841 56.8302L76.3174 57.9782C75.0819 59.1941 73.0831 59.1385 71.917 57.8558Z" fill="#3C3C3C" stroke="#CCCCCC" stroke-width="2"/>
</svg>
